<svg id="Capa_1" data-name="Capa 1" xmlns="http://www.w3.org/2000/svg" viewBox="0 0 471.1 470.98"><path d="M489.75,509.43c.19-10.21,3.54-18.49,10.22-25.36,4.42-4.55,8.94-9,13.42-13.5,5-5,6.36-10.89,3.72-17.45s-7.72-10.38-15.05-10.52c-7.09-.13-14.2.13-21.28-.25a34.66,34.66,0,0,1-33.07-33.79q-.51-24.63,0-49.27a34.67,34.67,0,0,1,33.12-33.75c6.52-.33,13.06-.24,19.59-.17,7.68.09,13.48-2.89,16.5-10.09s1.3-13.45-4.32-18.81q-6.27-6-12.26-12.28c-14.28-15-14.3-35.94.1-50.72q15.82-16.25,32.08-32.07c14.79-14.39,35.77-14.37,50.75-.13,4.46,4.25,8.74,8.68,13.09,13,5,5,10.88,6.39,17.44,3.76s10.38-7.75,10.56-15c.14-6,0-11.95.07-17.92.32-21.75,15.05-36.43,36.74-36.54,14.75-.07,29.49-.1,44.24,0,20.77.16,35.57,14.7,36.12,35.44.17,6.16,0,12.32.07,18.48.06,7.26,3.35,12.57,10.06,15.38,6.93,2.9,13.1,1.49,18.39-3.93,4.3-4.41,8.61-8.83,13.1-13,14.68-13.75,35.46-13.81,49.92.11q16.74,16.11,32.86,32.86c13.77,14.26,13.9,34.9.5,49.5-4.42,4.81-9.16,9.31-13.79,13.93-5,5-6.4,10.87-3.77,17.43s7.73,10.39,15,10.55c7.09.16,14.2-.11,21.27.25a34.61,34.61,0,0,1,33.1,33.75q.54,24.63,0,49.28a34.67,34.67,0,0,1-33.09,33.78c-6.33.34-12.69.33-19,.17-7.88-.19-13.92,2.63-17.07,10.07s-1.13,13.76,4.7,19.2c4.23,3.94,8.31,8.06,12.26,12.29,13.73,14.7,13.79,35.48-.12,49.93q-16.11,16.74-32.86,32.87c-14.19,13.72-35,13.85-49.52.48-4.8-4.43-9.29-9.19-13.92-13.79-5-5-10.87-6.39-17.44-3.75s-10.39,7.74-10.56,15c-.16,7.09.12,14.19-.23,21.27a34.69,34.69,0,0,1-33.77,33.11q-24.63.48-49.27,0a34.75,34.75,0,0,1-33.78-33.11c-.33-6.7-.16-13.43-.16-20.15,0-7.46-3.13-13-10.08-16-7.17-3-13.43-1.33-18.8,4.32-4.23,4.47-8.57,8.86-13.09,13-14.47,13.34-35.38,13.19-49.53-.52-11.13-10.77-22-21.82-32.89-32.84A34.75,34.75,0,0,1,489.75,509.43Zm68-299.8c-4.11,2.4-8.42,4-11.47,6.85-10.56,10-20.76,20.41-31,30.8-7.2,7.33-7.15,15.88,0,23.26,4.4,4.56,9.09,8.86,13.39,13.52,9.72,10.51,12.47,22.8,7.87,36.3s-14,22.5-28.5,24.51c-7.89,1.1-16,.62-24,.81-10.1.24-16.11,6-16.19,16q-.19,22.39,0,44.8c.09,9.64,6.15,15.57,15.82,15.77,6.53.13,13.08-.22,19.59.14,15.7.85,26.92,8.69,32.61,23.24s3,27.86-8,39.2c-4.16,4.28-8.5,8.39-12.64,12.7-6.89,7.18-7,15.78-.13,22.85q15.45,15.82,31.26,31.3c7.32,7.18,15.89,7.11,23.28,0,4.71-4.53,9.1-9.4,13.94-13.78,10.44-9.45,22.6-12,35.87-7.48,13.62,4.63,22.49,14,24.5,28.51,1.1,7.88.57,16,.78,24,.27,10.1,6,16.1,16,16.19q22.39.2,44.8,0c9.64-.09,15.54-6.12,15.77-15.84.14-6.15-.12-12.32.08-18.47.52-15.93,8-27.49,22.78-33.49s28.18-3.34,39.7,7.82c4.29,4.16,8.39,8.52,12.7,12.65,7.2,6.89,15.79,7,22.87.11q15.83-15.45,31.3-31.26c7.19-7.35,7.09-15.9,0-23.29C846,492.49,841,488,836.52,483c-9.16-10.37-11.49-22.4-7.13-35.48,4.5-13.48,13.74-22.26,27.93-24.37,8.06-1.19,16.37-.67,24.56-.89,10.12-.25,16.16-6,16.25-15.94q.21-22.4,0-44.79c-.09-9.71-6-15.58-15.75-15.85-6.34-.18-12.7.16-19-.11-15.69-.65-27.06-8.16-33-22.68-6-14.68-3.42-28.17,7.75-39.71,4-4.15,8.23-8.14,12.26-12.29,7.45-7.66,7.61-16.15.21-23.69q-15.29-15.59-30.88-30.87c-7.35-7.21-15.91-7.18-23.27-.09-4.71,4.53-9.1,9.4-13.94,13.78-10.43,9.44-22.6,12.06-35.87,7.53-13.59-4.63-22.52-14-24.55-28.47-1.11-7.89-.58-16-.79-24-.26-10.12-6-16.13-16-16.22q-22.4-.19-44.79,0c-9.68.09-15.59,6.06-15.82,15.77-.15,6.34.18,12.7-.1,19-.69,15.67-8.19,27.06-22.72,33s-28.17,3.37-39.7-7.8c-4.43-4.28-8.48-9-13.2-12.92C566,213.39,562.09,212,557.75,209.63Z" transform="translate(-447.45 -148.51)"/><path d="M787,293.24l-6.82-5.7c-7.24,4-14.83,8-22.11,12.45-1.32.81-2.19,3.73-1.93,5.46.9,5.93-1,10.49-5.13,14.61-19.34,19.19-38.6,38.47-58.48,58.31L711.13,397c8.81,8.82,8.84,12.62.11,21.35q-43.15,43.15-86.31,86.31c-10.8,10.81-23.63,15.08-38.33,10.47-15-4.68-24.86-15-28.32-30.45-3-13.59,1.2-25.33,11.07-35.17q42.23-42.11,84.35-84.32c1.32-1.32,2.62-2.65,4-4,6.35-6.2,11.29-6.18,17.79.09.8.77,1.62,1.53,2.74,2.58,1.26-1.11,2.53-2.12,3.67-3.26,16.91-16.88,33.76-33.82,50.73-50.63,2.35-2.33,3.25-4.45,2.55-7.85-1.69-8.25.66-13,8-17.17,10.23-5.77,20.48-11.5,30.8-17.11,7.09-3.85,12.55-3.12,18.38,2.39,4.07,3.84,8,7.8,11.87,11.88,5,5.31,5.87,11.08,2.44,17.46-5.81,10.84-11.86,21.56-17.84,32.31-3.55,6.39-9.15,8.61-16.08,7.24-3.92-.78-6.51.34-9.27,3.19-9.85,10.21-20,20.14-30,30.15-5.72,5.69-11.65,6.41-16.14,2s-3.95-10.49,1.67-16.13c11.71-11.77,23.56-23.42,35.18-35.29,4.15-4.24,8.91-6.27,14.61-5,3.51.8,5-.52,6.47-3.36C778.9,307.66,782.88,300.74,787,293.24ZM666.69,381.55a5.6,5.6,0,0,0-1.32.63c-27.73,27.69-55.54,55.31-83,83.25-2.6,2.64-4.05,7.19-4.49,11C577,483.8,582.67,491.63,590,495c6.77,3.06,14.21,1.7,20-4.09q41-40.92,81.94-82a4.1,4.1,0,0,0,.63-1.17Z" transform="translate(-447.45 -148.51)"/><path d="M608.24,331.27l21.81-21.91c-.71-.8-1.72-2-2.85-3.17-9.48-9.52-19-19-28.47-28.52-9.05-9.14-6.26-19.65,6.13-23.41a76.67,76.67,0,0,1,89.63,37.29c3.76,7.09,2.65,13-3,15.95-5.45,2.85-10.81.64-14.61-6.1Q661.41,274,630,271.38a46.91,46.91,0,0,0-5-.09,19.5,19.5,0,0,0-3,.7c1.91,2,3.34,3.54,4.83,5,6.32,6.35,12.72,12.62,19,19,8.41,8.61,8.46,18.69.08,27.24q-11.57,11.79-23.35,23.35c-8.63,8.51-19.13,8.52-27.72.06-7.58-7.46-15.07-15-22.63-22.49-.22-.23-.66-.25-2.31-.81.61,6,.64,11.48,1.83,16.75,3.71,16.51,13.06,29,27.84,37.39.81.46,1.63.91,2.41,1.41,5.3,3.38,7,9,4.32,13.91s-8.45,6.55-14.06,3.72a74.38,74.38,0,0,1-31.39-29.44c-11.26-19.36-13.82-39.9-7.51-61.43,3.55-12.08,14.14-14.84,23.1-6,9.45,9.29,18.75,18.72,28.13,28.08C605.78,329.05,607.15,330.26,608.24,331.27Z" transform="translate(-447.45 -148.51)"/><path d="M816.1,478.89c-.85,14.44-7.62,27-22.32,33.9-15.42,7.27-30.8,5.56-43.38-5.66-15.57-13.89-29.91-29.16-44.58-44A9.81,9.81,0,0,1,706,449c4.16-4,10.22-3.86,15,.84,13,12.84,25.76,25.94,38.89,38.65A31,31,0,0,0,771,495.64a18.46,18.46,0,0,0,21.86-8.07c4.81-7.85,3.85-17.25-2.92-24.14-12.82-13-25.82-25.88-38.74-38.82a30.4,30.4,0,0,1-3.74-4.13,9.94,9.94,0,0,1,1.21-12.8,10.23,10.23,0,0,1,12.84-1.06,21.07,21.07,0,0,1,2.94,2.57c13.07,13.05,26.17,26.06,39.16,39.19A41,41,0,0,1,816.1,478.89Z" transform="translate(-447.45 -148.51)"/></svg>