<svg xmlns="http://www.w3.org/2000/svg" viewBox="0 0 268.17 266"><g id="Capa_2" data-name="Capa 2"><g id="Capa_2-2" data-name="Capa 2"><path d="M268.12,263c.07-1.74.05-3.49,0-5.23-.07-4.75-.3-9.49-.65-14.21-.54-7.27-1.38-14.51-2.47-21.71-1.32-8.7-3-17.35-5.21-25.88a240,240,0,0,0-9-28.34,204.83,204.83,0,0,0-14.26-29.58,172.77,172.77,0,0,0-20.34-27.81,154.82,154.82,0,0,0-27.46-24A159.33,159.33,0,0,0,153,68a194.27,194.27,0,0,0-44.65-10.14c-4.13-.46-8.27-.8-12.41-1l3,3V3c0-2.52-3.33-4.07-5.12-2.12L84.48,11,62.33,35.08,35.55,64.19,12.25,89.52C8.51,93.59,4.67,97.59,1,101.74l-.16.18a3.07,3.07,0,0,0,0,4.24l9.32,10.66,22.3,25.5,27,30.84L82.8,199.89l7.66,8.76c1.21,1.39,2.37,2.86,3.66,4.19l.16.18c1.75,2,5.12.36,5.12-2.12V152.75l-3,3a112.32,112.32,0,0,1,12.58-.07q7,.27,14,1.06c1.38.16,2.76.33,4.13.51l.45.06,1.08.16,2.2.33c3.09.49,6.18,1,9.25,1.68a191.21,191.21,0,0,1,20.27,5.34q5.43,1.77,10.73,3.86l2.72,1.1.69.29.19.08,1.37.59c1.84.81,3.67,1.64,5.49,2.52a162.09,162.09,0,0,1,22,12.71c3.92,2.71,6.85,4.93,10.34,7.83s7.06,6.14,10.37,9.44A163.31,163.31,0,0,1,259,255.67c1.09,2.57,2.2,5.41,3.2,8.13a3.08,3.08,0,0,0,3.69,2.09,3,3,0,0,0,2.1-3.69c-7.8-21.07-19-40.81-34.11-57.51a158.73,158.73,0,0,0-43.34-33.6A182,182,0,0,0,147,154.86a200.47,200.47,0,0,0-34.65-5,118,118,0,0,0-15.73-.1H96.4a3.07,3.07,0,0,0-3,3V210.9l5.12-2.12L89.2,198.11l-22.3-25.5-27-30.83L16.56,115l-7.65-8.75c-1.21-1.39-2.37-2.88-3.66-4.19l-.16-.18v4.24L14.39,96,36.55,72,63.33,42.85l23.3-25.33,7.62-8.29c1.19-1.3,2.51-2.55,3.62-3.94L98,5.12,92.91,3V59.81a3.06,3.06,0,0,0,3,3,199.77,199.77,0,0,1,46,7.85q5,1.52,10,3.32,2.4.88,4.77,1.84l1.18.48.7.29q1.22.51,2.43,1a155,155,0,0,1,17.3,9q4,2.43,7.92,5.12,1.93,1.34,3.82,2.74c.57.42,1.15.85,1.71,1.28l.4.31c.4.3-.55-.43.09.07l1,.77a149,149,0,0,1,13.28,11.83A157.14,157.14,0,0,1,218,121.6l1.31,1.65.28.37c-.39-.5-.12-.16,0-.05l.78,1c.84,1.11,1.67,2.23,2.48,3.36q2.44,3.42,4.72,6.94a192.51,192.51,0,0,1,15.14,28.6c.13.29.26.59.38.89l.12.28c.26.63.52,1.25.77,1.88.5,1.22,1,2.45,1.46,3.67.91,2.36,1.77,4.73,2.6,7.11q2.45,7,4.44,14.18a265.88,265.88,0,0,1,5.91,26.31c.35,2,.68,4.08,1,6.12.15,1,.29,1.91.42,2.87l.09.63c.09.68,0,.27,0,.06.07.49.13,1,.2,1.46q.66,5.22,1.14,10.45c.47,5.25.8,10.52.94,15.79.06,2.5,0,5,0,7.49,0,.1,0,.21,0,.32C262,266.86,268,266.85,268.12,263Z"/></g></g></svg>