<svg id="Capa_1" data-name="Capa 1" xmlns="http://www.w3.org/2000/svg" viewBox="0 0 618.51 618.5"><path d="M373.75,631.61V188.3a21,21,0,0,0,1-2.81c7.79-36.91,34.94-59,72.62-59.09q21.09,0,42.16,0h13.15c0-9.75.43-18.76-.1-27.7C501.9,87,506.5,79,517.49,74.75h9.67c11.06,5.13,15.05,14,14.29,25.84-.53,8.36-.1,16.78-.1,25.46H824.61c0-8.71.41-17.13-.1-25.49-.71-11.83,3.06-20.79,14.29-25.81h9.67c10.92,4.32,15.6,12.28,14.9,24-.53,9-.11,18-.11,27.6h7.32c17.51,0,35-.28,52.53.11a70.29,70.29,0,0,1,69,70.36q.21,212.85,0,425.7a70.51,70.51,0,0,1-70.78,70.6q-238.51.18-477,0c-23.39,0-42.21-10.12-56.58-28.6C380.18,654.76,376.73,643.3,373.75,631.61ZM412.4,320v6.22q0,146.71,0,293.44c0,21.61,13.36,34.89,35.08,34.89q235.49,0,471,0c21.7,0,35.09-13.3,35.1-34.88q0-146.71,0-293.44V320Zm.1-39.44H953.56c0-27.4,0-54.35,0-81.3,0-20.66-13.28-34-33.86-34.19-16.91-.11-33.82,0-50.72,0-1.73,0-3.46.28-5.7.47,0,14.69.09,28.94,0,43.19-.1,12-8,20.51-19,20.63-11.16.13-19.45-8.52-19.6-20.78s0-24.55,0-36.83c0-2.12-.18-4.24-.27-6.31H541.64c-.11,2.13-.27,3.9-.28,5.67,0,12.88.22,25.77-.11,38.64-.29,11.48-8.78,19.7-19.51,19.61s-18.81-8.5-19-20c-.14-8.45,0-16.9,0-25.36V165.36c-21.59,0-42.33-.67-63,.23-14.19.63-26.75,14.21-27,28.79C412.1,222.94,412.5,251.51,412.5,280.56Z" transform="translate(-373.75 -74.75)"/></svg>