<svg id="Capa_1" data-name="Capa 1" xmlns="http://www.w3.org/2000/svg" viewBox="0 0 551.73 545.17"><path d="M432.58,493.46c1.38-11.76,3-27,5-42.28,1.57-11.57.22-22.43-5.28-32.84-5.88-11.13-11.46-22.41-17.1-33.66-14.64-29.17-9.65-57.92,14-80.5q13.89-13.24,28-26.24a50.28,50.28,0,0,0,15.51-27c3.07-13.92,6.26-27.82,9.9-41.59,7.36-27.81,31.68-46.89,60.45-48.09,14.07-.59,28.13-1.43,42.19-2.33,9.71-.62,18.23-4.4,26-10.25,11.52-8.72,23-17.57,34.79-25.85,22.54-15.78,51.39-15.68,74,.2,11.22,7.88,22.16,16.17,33,24.57a53,53,0,0,0,32.28,11.63c13.33.32,26.67,1.2,40,2.24,29.25,2.31,51.91,22.24,58.85,51.5q4.61,19.44,9.06,38.93a47.89,47.89,0,0,0,14.44,25.11Q921.9,290.27,936,303.7c24.22,23,29.25,51.65,14.31,81.37-4.41,8.76-8.28,17.86-13.41,26.19-9.29,15.1-10.89,31-7.89,48.1,1.82,10.39,2.86,20.92,3.9,31.43A64.28,64.28,0,0,1,895.81,556c-12.74,5.95-25.72,11.39-38.74,16.72a51.3,51.3,0,0,0-24.7,20.64c-7,11.11-14.25,22.1-21.57,33-17,25.35-44.93,35.45-74.32,26.88q-19.44-5.67-38.81-11.64a49.5,49.5,0,0,0-29.51,0c-16,4.75-31.76,10.48-48,13.49-26,4.82-47.43-4.74-63.1-26-8.13-11-15.45-22.65-22.64-34.3A54.87,54.87,0,0,0,507.26,572c-11.68-4.68-23.24-9.67-34.74-14.77C447.39,546.08,432.51,523.55,432.58,493.46Zm17.6,2.55c.61,21.08,9.87,35.81,28.29,44.32,12.43,5.74,25.11,10.94,37.75,16.19a68,68,0,0,1,32.12,27.19q10.7,16.89,21.92,33.46c12.4,18.26,31.73,25.28,52.93,19.27q19.5-5.54,38.82-11.62a67.21,67.21,0,0,1,41.51-.06c12.35,3.9,24.76,7.61,37.19,11.26,23.16,6.8,42.63-.36,55.91-20.5,7-10.67,14.12-21.31,21-32.1a68.24,68.24,0,0,1,32.76-27.24q18.49-7.56,36.74-15.74c19.7-8.89,30.21-27.06,28.06-48.41-1.06-10.51-2.13-21-3.91-31.43-3.41-19.89-1.23-38.59,9.26-56.24,5.19-8.73,9.29-18.11,13.86-27.21,11.52-22.95,8.07-42.85-10.47-60.39-10.1-9.55-20.29-19-30.32-28.64a60.47,60.47,0,0,1-17.12-30c-3.43-14.21-6.44-28.53-10.14-42.67-5.18-19.78-17.77-32.53-38.22-35.44-14.45-2.05-29.17-2.47-43.79-3-15.15-.53-28.64-5-40.67-14.26-10.14-7.78-20.41-15.4-30.69-23C693,125,672.38,125.14,652.52,140l-31.6,23.64c-8.92,6.67-18.75,11.43-29.89,12.41q-22.69,2-45.48,2.94c-23.76,1-40.73,14.4-46.33,37.35-3,12.4-6.08,24.81-8.76,37.29a68.73,68.73,0,0,1-21.28,37.51c-9.45,8.61-18.7,17.45-28,26.23C423.67,333.9,420,354.4,430.77,376q8.93,17.89,18.07,35.67c6.65,13,8.42,26.62,6.48,41C453.34,467.33,451.81,482.07,450.18,496Z" transform="translate(-406.99 -111.1)"/><path d="M864.81,383.51c.42,99.88-80.87,181.44-181.56,182.15-99.85.71-182.38-81.66-182.32-181.95s81.48-181.65,181.83-181.87C782.82,201.63,864.38,283,864.81,383.51Zm-346.08.15c-.08,90.36,73.53,164,164,164.21,90.3.16,164.09-73.55,164.23-164,.14-90.33-73.52-164-164.06-164.19C592.64,219.49,518.82,293.22,518.73,383.66Z" transform="translate(-406.99 -111.1)"/><path d="M660.11,385c16.1-15.64,31.56-30.55,46.89-45.6,9.12-9,18-18.2,27-27.23,14-13.91,34.35-14.46,47.79-1.37s13.62,33.76-.16,47.8q-47.89,48.81-96.21,97.21c-14.05,14.09-34,14.07-48.19.11q-26.76-26.31-53.08-53.07c-13.78-14-13.79-34.54-.37-47.77,13.19-13,33.68-12.79,47.4.72C641.11,365.51,650.76,375.5,660.11,385Zm1.49,64.91c4.49-2.84,9.18-4.77,12.52-8.08,20.94-20.74,41.59-41.78,62.32-62.73,10.95-11.07,22-22.09,32.8-33.27,5.34-5.51,6.24-12.19,3-18.37-3-5.77-9.4-9.59-15.7-7.91a26.16,26.16,0,0,0-11.11,6.62c-25.23,25.11-50.21,50.47-75.27,75.75-7.14,7.19-10.61,7.23-17.66.2-11.3-11.25-22.47-22.63-33.88-33.76-6.75-6.59-16.31-6.62-22.42-.5s-6.22,15.57.52,22.39q26.37,26.71,53.17,53C652.74,446,657,447.34,661.6,449.88Z" transform="translate(-406.99 -111.1)"/></svg>