<svg xmlns="http://www.w3.org/2000/svg" viewBox="0 0 268 268"><defs><style>.cls-1{fill:none;stroke:#000;stroke-miterlimit:10;stroke-width:5px;}</style></defs><g id="Capa_2" data-name="Capa 2"><g id="Capa_1-2" data-name="Capa 1"><path d="M101.6,189.8a36.82,36.82,0,0,1-15-3A23.41,23.41,0,0,1,75.68,177q-4-6.76-4-18V114.49q0-11.23,4.18-18a24.36,24.36,0,0,1,11-9.8,36.92,36.92,0,0,1,15-3q9.51,0,16.13,3.31a25.09,25.09,0,0,1,10.15,8.79,21.88,21.88,0,0,1,3.53,12.09c0,2.31-.41,3.82-1.23,4.54a6.54,6.54,0,0,1-7.2,0,4,4,0,0,1-1.22-2.52,20.92,20.92,0,0,0-.79-5.26,17.21,17.21,0,0,0-2.88-5.76,15.3,15.3,0,0,0-6-4.61A25.25,25.25,0,0,0,102,92.46q-10.08,0-15.4,5.39T81.3,114.49V159q0,11.39,5.4,16.71T102.47,181q6.48,0,10.22-1.81a14.09,14.09,0,0,0,5.62-4.46A17.56,17.56,0,0,0,121,169a41,41,0,0,0,1.08-5.69,4.44,4.44,0,0,1,1.37-2.8,6.32,6.32,0,0,1,7,.28q1.23,1.23,1.23,4.68a21.68,21.68,0,0,1-3.6,12,25.85,25.85,0,0,1-10.3,8.93A35.64,35.64,0,0,1,101.6,189.8Z"/><path d="M171.87,188.94a6,6,0,0,1-3.31-.94,3.12,3.12,0,0,1-1.44-2.81V92.6H142.93a3.23,3.23,0,0,1-2.74-1.37,5.25,5.25,0,0,1,0-6.19,3.23,3.23,0,0,1,2.74-1.37h57.74A3,3,0,0,1,203.41,85a5.48,5.48,0,0,1,.86,2.95,6.11,6.11,0,0,1-.86,3.17,3,3,0,0,1-2.74,1.44h-24v92.59a3.08,3.08,0,0,1-1.51,2.81A6.1,6.1,0,0,1,171.87,188.94Z"/><circle class="cls-1" cx="134" cy="134" r="131.5"/></g></g></svg>