<svg xmlns="http://www.w3.org/2000/svg" viewBox="0 0 226.5 221.18"><defs><style>.cls-1{fill:none;stroke-miterlimit:10;stroke-width:3px;}.cls-1,.cls-2{stroke:#000;}</style></defs><g id="Capa_2" data-name="Capa 2"><g id="Capa_3" data-name="Capa 3"><path d="M133.16,172a38.2,38.2,0,0,0-4-17.8,33.09,33.09,0,0,0-9.65-11.12,47.09,47.09,0,0,0-20.88-8.35,60.88,60.88,0,0,0-9.64-.47H47c-2.43,0-4.95-.19-7.37,0h-.35l1.5,1.5V111.72a1.52,1.52,0,0,0-2.56-1.06L25.5,123.39,5.1,143.78.43,148.45a1.53,1.53,0,0,0,0,2.12l12.69,12.69,20.22,20.22L38,188.11a1.52,1.52,0,0,0,2.56-1.06V164.17l-1.5,1.5H80.27c.9,0,1.81,0,2.71,0,.21,0,.79.09.29,0a15.06,15.06,0,0,1,2,.43,11,11,0,0,1,5.64,3.72c2.37,3.07,2.58,7.14,2.18,10.84-.2,1.92,2.8,1.91,3,0,.7-6.5-1.19-13.34-7.42-16.43a14.84,14.84,0,0,0-6.59-1.58H39a1.52,1.52,0,0,0-1.5,1.5v22.88L40.09,186,27.4,173.3,7.18,153.08l-4.63-4.63v2.12l12.73-12.73,20.4-20.39,4.67-4.67-2.56-1.06v24.06a1.52,1.52,0,0,0,1.5,1.5H85.45a99.71,99.71,0,0,1,10.66.13l.64.08.19,0,.31.05c.59.08,1.18.18,1.76.28,1.52.28,3,.62,4.52,1a44.89,44.89,0,0,1,10.68,4.35,30.28,30.28,0,0,1,15.7,23.93,44,44,0,0,1,.25,4.87,1.5,1.5,0,0,0,3,0Z"/><path d="M93.1,180.31l0,34.51v4.86a1.52,1.52,0,0,0,1.5,1.5h37.1a1.52,1.52,0,0,0,1.5-1.5V137.83a22.38,22.38,0,0,1,.56-6.76,7.61,7.61,0,0,1,5.09-5.36c2.81-.83,6.13-.41,9-.41h39.75l-1.5-1.5v19.86a1.52,1.52,0,0,0,2.56,1.06l12-12,19.23-19.23,4.39-4.4a1.51,1.51,0,0,0,0-2.12L212,94.72,192.62,75.31l-4.47-4.47a1.52,1.52,0,0,0-2.56,1.06V95l1.5-1.5H138.51a69.37,69.37,0,0,0-10.4.35,44.93,44.93,0,0,0-19.55,7.8,36.15,36.15,0,0,0-10,10.95,41.76,41.76,0,0,0-5.28,17.66c-.16,1.84-.21,3.68-.2,5.52a1.5,1.5,0,0,0,3,0V60.19c0-3.47.17-7,0-10.46v-.14a1.52,1.52,0,0,0-1.5-1.5H64.08l1.06,2.56L81.46,34.32,107.27,8.51l6-6h-2.12l15.8,15.81,25.17,25.16,5.75,5.75,1.06-2.56H131.07a1.52,1.52,0,0,0-1.5,1.5V95a1.5,1.5,0,0,0,3,0V48.21l-1.5,1.5h27.82A1.52,1.52,0,0,0,160,47.15l-15.8-15.8L119,6.18,113.23.43a1.53,1.53,0,0,0-2.12,0L94.79,16.75,69,42.56l-6,6a1.52,1.52,0,0,0,1.07,2.56H94.56l-1.5-1.5v82.68a26.91,26.91,0,0,0,0,3.36.75.75,0,0,1,0,.15h3A43.59,43.59,0,0,1,99.61,117a33.17,33.17,0,0,1,8.94-11.6,41.44,41.44,0,0,1,19.3-8.51l1.5-.23c.22,0-.36,0,0,0l.3,0,.52-.06.9-.08c1.86-.06,3.74,0,5.6,0h28.59c7.14,0,14.31.17,21.45,0h.37a1.52,1.52,0,0,0,1.5-1.5V71.9L186,73,198.28,85.2l19.41,19.42,4.47,4.47V107l-12,12L190.93,138.2l-4.4,4.4,2.56,1.06V123.8a1.52,1.52,0,0,0-1.5-1.5H142.78c-3.41,0-6.8.61-9.26,3.19-3,3.14-3.52,7.55-3.36,11.68.08,1.86,0,3.75,0,5.61v68.35c0,2.69-.22,5.49,0,8.17,0,.12,0,.25,0,.38l1.5-1.5H94.56l1.5,1.5,0-34.52v-4.85a1.5,1.5,0,0,0-3,0Z"/><circle class="cls-1" cx="195.18" cy="189.62" r="29.82"/><path class="cls-2" d="M180.14,202.57a1,1,0,0,1-.74-.26.76.76,0,0,1-.28-.59V178.61a.78.78,0,0,1,.28-.6,1,1,0,0,1,.74-.25h6a8.91,8.91,0,0,1,3.61.71,5.48,5.48,0,0,1,2.55,2.31,8.38,8.38,0,0,1,.93,4.24v10.29a8.41,8.41,0,0,1-.93,4.24,5.48,5.48,0,0,1-2.55,2.31,8.91,8.91,0,0,1-3.61.71Zm1.22-2.07h4.79a4.89,4.89,0,0,0,3.56-1.27,5.31,5.31,0,0,0,1.29-3.92V185a5.31,5.31,0,0,0-1.29-3.92,4.79,4.79,0,0,0-3.53-1.27h-4.82Z"/><path class="cls-2" d="M197.52,202.57a1.63,1.63,0,0,1-.58-.12,1.39,1.39,0,0,1-.51-.34.73.73,0,0,1-.2-.49.88.88,0,0,1,0-.24l7.1-23a1,1,0,0,1,.5-.63,1.89,1.89,0,0,1,.82-.18,1.83,1.83,0,0,1,.87.2.93.93,0,0,1,.49.61l7.06,23a.75.75,0,0,1,0,.2.74.74,0,0,1-.2.5,1.71,1.71,0,0,1-.51.35,1.62,1.62,0,0,1-.65.14,1,1,0,0,1-.51-.14.78.78,0,0,1-.34-.44l-1.56-5.23H200L198.44,202a.78.78,0,0,1-.34.44A1.18,1.18,0,0,1,197.52,202.57Zm3-7.74h8.25l-4.11-13.68Z"/></g></g></svg>