<svg id="Capa_1" data-name="Capa 1" xmlns="http://www.w3.org/2000/svg" viewBox="0 0 435.22 446.16"><path d="M683.07,160.92h99.64c22.43,0,35.9,13.45,35.93,36q.08,62.72-.07,125.43c0,3.92,1.13,6.16,4.52,8.25,23.45,14.38,46.75,29,70.09,43.56,9.87,6.16,9.91,13.51.08,19.64-23.33,14.57-46.65,29.17-70.09,43.56-3.34,2.06-4.62,4.23-4.61,8.2q.23,63.22.07,126.46c0,17.92-10.2,31-26.61,34.41a43,43,0,0,1-8.72.62q-100.15.06-200.32,0c-22,0-35.62-13.58-35.65-35.76q-.08-62.71.07-125.43c0-4.09-1.18-6.46-4.73-8.64-23.6-14.47-47-29.2-70.53-43.84-9-5.6-9-13.19-.05-18.77,23.63-14.73,47.23-29.53,71-44.11,3.21-2,4.35-4.11,4.34-7.82q-.18-63.22,0-126.46c0-18.21,10.24-31.39,26.84-34.74a45.39,45.39,0,0,1,8.73-.56Q633,160.89,683.07,160.92ZM818.66,350v6.61c0,13.25.09,26.5-.11,39.74-.09,6-3.88,9.54-9.3,9.53s-9.06-3.73-9.45-9.53c-.11-1.54,0-3.09,0-4.64v-194c0-13-5.07-18-18.14-18H584.44c-13.33,0-18.23,5-18.23,18.42q0,98.05,0,196.11c0,7.87-3.31,12.27-9.26,12.44-6.11.17-9.6-4.33-9.62-12.52,0-12.56,0-25.11,0-37.67,0-1.79,0-3.58,0-6.43L493,383.84c1.9,1.34,3.08,2.27,4.34,3.05q90.61,56.44,181.17,113c3.51,2.2,5.8,2,9.15-.14q89.85-56.18,179.85-112.13c1.68-1,3.3-2.16,5.58-3.66ZM566.21,452.22V458q0,56.22,0,112.46c0,12.72,5.11,17.87,17.74,17.87H782.09c12.39,0,17.66-5.2,17.66-17.43q0-56.74,0-113.49c0-1.47-.16-2.93-.28-4.94-2.11,1.21-3.74,2.07-5.3,3-34.28,21.35-68.61,42.6-102.76,64.16-6.08,3.84-10.91,3.72-17-.11-34-21.48-68.18-42.63-102.32-63.88C570.43,454.63,568.67,453.66,566.21,452.22Z" transform="translate(-465.39 -160.92)"/><path d="M752.88,384.56c0,10.32-.11,20.65,0,31,.08,5.36-2,9.05-6.65,11.84-18.66,11.34-37.28,22.73-55.75,34.36-5.37,3.38-9.86,3.27-15.21-.1-18.45-11.66-37.09-23-55.75-34.36-4.42-2.69-6.53-6.22-6.51-11.39q.13-31.74,0-63.48a11.87,11.87,0,0,1,6.17-11c18.89-11.62,37.75-23.29,56.45-35.21,5.21-3.32,9.61-3.19,14.74.07,18.72,11.88,37.58,23.55,56.45,35.2,4.25,2.63,6.08,6.22,6,11.14C752.81,363.23,752.88,373.9,752.88,384.56ZM725.5,350.47c-13.83-8.63-27.18-17-40.63-25.24a4.7,4.7,0,0,0-4,.18c-13.3,8.16-26.52,16.47-40.26,25,13.93,8.64,27.43,17.05,41,25.33a3.7,3.7,0,0,0,3.19-.17C698.22,367.39,711.62,359.06,725.5,350.47Zm-51.9,87.8c0-14.89.1-28.61-.14-42.33,0-1.59-1.62-3.67-3.07-4.62-7.18-4.71-14.55-9.11-21.85-13.63l-16.39-10.18c0,15.1,0,29.14.08,43.18a4.59,4.59,0,0,0,2,3.21C647,421.9,659.8,429.77,673.6,438.27Zm18.76-.48a19.37,19.37,0,0,0,2.43-1c12.13-7.44,24.32-14.81,36.3-22.48,1.46-.94,2.59-3.53,2.63-5.38.25-10.46.12-20.93.12-31.4v-10c-14.06,8.71-27,16.68-39.86,24.84-1,.62-1.54,2.59-1.55,3.94C692.32,409.87,692.36,423.43,692.36,437.79Z" transform="translate(-465.39 -160.92)"/><path d="M578.53,313.87c-.21-4.59,2.54-7.17,6.1-9.37q33.29-20.65,66.52-41.39c8.46-5.27,17-10.45,25.33-15.88,4.44-2.87,8.51-2.85,13-.07q46.53,29.11,93.14,58.12c5.93,3.71,7.58,8.94,4.64,13.86s-8.77,5.78-14.84,2c-28.31-17.61-56.63-35.17-84.82-52.95-3.45-2.18-5.75-2.1-9.16,0-27.32,17.23-54.78,34.24-82.2,51.3a33.25,33.25,0,0,1-5,2.74A9.18,9.18,0,0,1,578.53,313.87Z" transform="translate(-465.39 -160.92)"/><path d="M683,221.07c-13.75,0-27.5,0-41.25,0-7.33,0-11.57-3.63-11.42-9.57.14-5.71,4.34-9.17,11.36-9.18q41.76,0,83.54,0c5.54,0,9.41,2.91,10.22,7.58s-1,8.21-5.19,10.17a14.65,14.65,0,0,1-6,1C710.51,221.1,696.76,221.07,683,221.07Z" transform="translate(-465.39 -160.92)"/><path d="M682.68,564.7c-5.51,0-11,.09-16.52,0-6.18-.12-10.1-3.8-10.14-9.3s3.74-9.34,10-9.41q17-.19,34.07,0c6.19.08,10,3.91,9.89,9.49s-4,9-10.22,9.25h-17Z" transform="translate(-465.39 -160.92)"/></svg>