<svg xmlns="http://www.w3.org/2000/svg" viewBox="0 0 268 268"><defs><style>.cls-1{fill:none;stroke:#000;stroke-miterlimit:10;stroke-width:5px;}</style></defs><g id="Capa_2" data-name="Capa 2"><g id="Capa_1-2" data-name="Capa 1"><path d="M85.47,188.94a6.27,6.27,0,0,1-3.31-.87,3,3,0,0,1-1.44-2.74V87.42a3.18,3.18,0,0,1,1.37-2.81,5.07,5.07,0,0,1,3-.94h51A3,3,0,0,1,138.75,85a5.51,5.51,0,0,1-.07,6A3,3,0,0,1,136,92.46H90.23v39.6H113a3,3,0,0,1,2.52,1.29,5,5,0,0,1,.93,3,5.11,5.11,0,0,1-.79,2.73,2.87,2.87,0,0,1-2.66,1.3H90.23v44.92a2.92,2.92,0,0,1-1.52,2.74A6.35,6.35,0,0,1,85.47,188.94Z"/><path d="M180.37,188.94a6.1,6.1,0,0,1-3.24-.94,3.08,3.08,0,0,1-1.51-2.81v-21H139a3.55,3.55,0,0,1-2.73-1.08,3.92,3.92,0,0,1-1-2.81,5.24,5.24,0,0,1,.14-1.3,6.23,6.23,0,0,1,.43-1.15L172,86.69A4.45,4.45,0,0,1,174,84.32a5.37,5.37,0,0,1,2.52-.65,4.89,4.89,0,0,1,2.09.51,5.11,5.11,0,0,1,1.8,1.36,3.07,3.07,0,0,1,.72,2,5.84,5.84,0,0,1-.43,1.87L147.54,155.1h28.08V127.3a2.77,2.77,0,0,1,1.51-2.66,6.87,6.87,0,0,1,3.24-.79,6.72,6.72,0,0,1,3.31.79,2.8,2.8,0,0,1,1.44,2.66v27.8H193a3.18,3.18,0,0,1,2.81,1.36,5.42,5.42,0,0,1,.94,3.1,5.17,5.17,0,0,1-1.08,3.17,3.25,3.25,0,0,1-2.67,1.44h-7.92v21a3.12,3.12,0,0,1-1.44,2.81A6,6,0,0,1,180.37,188.94Z"/><circle class="cls-1" cx="134" cy="134" r="131.5"/></g></g></svg>