<svg xmlns="http://www.w3.org/2000/svg" viewBox="0 0 268 268"><defs><style>.cls-1{fill:none;stroke:#000;stroke-miterlimit:10;stroke-width:5px;}</style></defs><g id="Capa_2" data-name="Capa 2"><g id="Capa_1-2" data-name="Capa 1"><path d="M79.79,188.94a6.3,6.3,0,0,1-3.32-.87A3,3,0,0,1,75,185.33V87.42a3.18,3.18,0,0,1,1.37-2.81,5.09,5.09,0,0,1,2.95-.94h51A3,3,0,0,1,133.07,85a5.48,5.48,0,0,1,.86,2.95,5.33,5.33,0,0,1-.94,3.1,3,3,0,0,1-2.66,1.37H84.54v39.6h22.75a3,3,0,0,1,2.52,1.29,5.05,5.05,0,0,1,.94,3,5.13,5.13,0,0,1-.8,2.73,2.85,2.85,0,0,1-2.66,1.3H84.54v44.92A2.93,2.93,0,0,1,83,188.07,6.4,6.4,0,0,1,79.79,188.94Z"/><path d="M169.35,189.8a35.78,35.78,0,0,1-16.13-3.38,25.23,25.23,0,0,1-10.29-8.93,22.16,22.16,0,0,1-3.53-12.17c0-1.82.43-3.07,1.3-3.74a5.41,5.41,0,0,1,3.45-1,4.86,4.86,0,0,1,3.67,1.15,4.05,4.05,0,0,1,1.08,2.88,14.38,14.38,0,0,0,2.74,8.86,17.39,17.39,0,0,0,7.34,5.61,26,26,0,0,0,10.23,2q9.64,0,15.12-5.33t5.47-16.42v-2.73q0-10.81-5.47-16t-14.83-5.18H149.34c-1.93,0-3.22-.36-3.89-1.08a3.73,3.73,0,0,1-1-2.67,13.45,13.45,0,0,1,.07-1.51c.05-.43.12-.89.22-1.37l2.88-41.32a5.35,5.35,0,0,1,.86-2.74,2.34,2.34,0,0,1,2-1H191A2.58,2.58,0,0,1,193.33,85a6.13,6.13,0,0,1,.79,3.1,5.87,5.87,0,0,1-.79,3A2.58,2.58,0,0,1,191,92.46H156.1L153.66,127H169.5a38.31,38.31,0,0,1,15.12,2.88,22.82,22.82,0,0,1,10.72,9.35c2.64,4.33,4,10.08,4,17.29v2.73q0,11.08-4,17.79a23.22,23.22,0,0,1-10.8,9.71A37.09,37.09,0,0,1,169.35,189.8Z"/><circle class="cls-1" cx="134" cy="134" r="131.5"/></g></g></svg>