<svg id="Capa_1" data-name="Capa 1" xmlns="http://www.w3.org/2000/svg" viewBox="0 0 432.35 477.76"><path d="M487.39,578.36H673.58c1.84,0,3.68-.06,5.5.08,5.57.41,9.33,4.17,9.53,9.42a10,10,0,0,1-9.18,10.43,42.79,42.79,0,0,1-4.94.09H481c-11,0-14.12-3.08-14.12-14q0-181.94-.08-363.86a17.69,17.69,0,0,1,5.71-13.59q28.58-28.17,56.75-56.74a15.79,15.79,0,0,1,12.13-5.07q124.22.15,248.43.08c9.62,0,13,3.3,13,12.81q0,111,0,222.05a19.65,19.65,0,0,1-.84,6.46c-1.69,4.72-5.33,6.9-10.3,6.39s-8-3.45-8.68-8.41a46.54,46.54,0,0,1-.23-6.58q0-102.51,0-205v-7.35H549.44v21c0,9.71.13,19.42-.06,29.13-.15,7.49-3.89,11-11.31,11.12-7,.08-13.93.1-20.89,0-6.75-.1-11.24-4.36-11.08-10.28.16-5.71,4.46-9.51,11.09-9.66,3.8-.09,7.61,0,11.74,0V179.37c-1.66,1.55-2.83,2.57-3.92,3.66-11.53,11.53-23.15,23-34.48,34.69a12,12,0,0,0-3.25,7.49q-.24,174-.13,347.91C487.15,574.58,487.28,576,487.39,578.36Z" transform="translate(-466.82 -145.12)"/><path d="M899.18,518.08c.05,57.77-46.93,104.73-104.86,104.8a104.76,104.76,0,1,1,104.86-104.8ZM879,517.94a84.73,84.73,0,0,0-169.45.37c0,46.74,38.31,84.68,85.24,84.55C841.32,602.72,879.05,564.66,879,517.94Z" transform="translate(-466.82 -145.12)"/><path d="M635.26,334.43q44.78,0,89.54,0c4.33,0,8,.94,10.33,4.87a10,10,0,0,1-6.72,14.91,22.81,22.81,0,0,1-4.38.21q-89.26,0-178.53,0c-7,0-11.06-2.74-12-7.94-1.28-6.8,3.14-11.94,10.62-12,16.11-.09,32.22,0,48.34,0Z" transform="translate(-466.82 -145.12)"/><path d="M635.08,299.66q-44.76,0-89.53,0c-7.42,0-11.39-2.85-12.16-8.41a9.87,9.87,0,0,1,8.45-11.48,38.61,38.61,0,0,1,5.49-.15H722.56c1.1,0,2.2,0,3.29,0,6.41.27,10.82,4.42,10.78,10.1s-4.38,9.85-10.91,9.88c-21.6.12-43.21.06-64.82.07Z" transform="translate(-466.82 -145.12)"/><path d="M634.68,409.19q-44.49,0-89,0c-7.73,0-12.07-3.39-12.4-9.47a9.46,9.46,0,0,1,8.4-10.38,37.05,37.05,0,0,1,5.48-.25q87.6,0,175.22,0a42.6,42.6,0,0,1,4.93.16c5.42.6,9.27,4.71,9.31,9.77a10.22,10.22,0,0,1-8.6,10,32.14,32.14,0,0,1-5.47.23Z" transform="translate(-466.82 -145.12)"/><path d="M605,463.81c-19.76,0-39.52.12-59.27-.11-3.09,0-6.75-.85-9.14-2.65-5.85-4.42-4-14,2.91-16.46a22.91,22.91,0,0,1,7.55-.95q57.61-.08,115.24,0c1.28,0,2.57-.06,3.84.06,6.05.57,10.23,4.78,10.17,10.19s-4.25,9.76-10.39,9.86c-13.72.21-27.44.09-41.16.1Z" transform="translate(-466.82 -145.12)"/><path d="M603.66,518.44c-19.59,0-39.18,0-58.77,0-6.43,0-10.19-2.59-11.35-7.4-1.65-6.82,3-12.49,10.59-12.59,11.71-.14,23.43,0,35.15,0,27.64,0,55.29-.1,82.93.12,3.25,0,7.59.82,9.43,3,2.09,2.45,3,7,2.49,10.3-.71,4.6-4.81,6.61-9.5,6.63-11.9,0-23.8,0-35.7,0Z" transform="translate(-466.82 -145.12)"/><path d="M680.87,245c-14.11,0-28.21,0-42.32,0a26.72,26.72,0,0,1-6-.47,9.18,9.18,0,0,1-7.62-8.89c-.34-4.92,2.05-8.5,6.81-10.05a19.65,19.65,0,0,1,5.94-.75q43.14-.06,86.28,0a24.13,24.13,0,0,1,3.29.12c5.43.73,9.27,4.78,9.37,9.83.1,5.25-3.86,9.58-9.6,10.09-3.46.3-6.95.15-10.43.16Z" transform="translate(-466.82 -145.12)"/><path d="M803.13,580.29c-1.47,7.5-5.07,11.52-10.83,10.3-3.24-.69-8.19-3.81-8.4-6.18-.57-6.33-4.68-7.25-9-9A53,53,0,0,1,750.93,556c-4.18-6-3.51-11.94,1.59-15.42,4.76-3.27,10.61-1.88,14.68,3.72,9.54,13.17,22.45,17.56,38.06,14.49a21.73,21.73,0,0,0,8.42-3.74c9.65-7.11,8.75-19.36-2.13-24.31-5-2.28-10.89-2.67-16.4-3.81-8.88-1.84-18.51-2-26.55-5.67-24.47-11.17-26.2-41.81-3.82-56.78a57.16,57.16,0,0,1,7.73-4.11c4.88-2.28,11.46-1.9,12.18-10.06.16-1.85,5.81-4.63,8.76-4.43s5.95,3.31,8.41,5.68c1.11,1.06,1,3.41,1.52,5.66,1.5.46,3.38,1,5.25,1.61,11.37,3.58,20,10.46,25.47,21.13,2.75,5.42,1.09,11.11-3.71,13.82s-10.86,1.45-13.61-4.06c-7-14.07-25.95-15.46-37.12-10.81-6.62,2.76-10.85,8.69-10.39,14.14s4.81,10.3,12.06,11.89c5.68,1.25,11.64,1.15,17.38,2.16,6.45,1.13,13.12,2,19.11,4.44,13.39,5.41,22.34,15.18,22.39,30.23,0,15.41-7.61,26.89-21.57,33.58C813.93,577.56,808.63,578.57,803.13,580.29Z" transform="translate(-466.82 -145.12)"/></svg>