<svg id="Capa_1" data-name="Capa 1" xmlns="http://www.w3.org/2000/svg" viewBox="0 0 221.24 343.27"><path d="M731.61,383.52,667.7,328.76q-42.11-36.09-84.24-72.17c-7-6-10.89-13.26-9.7-22.56s6.34-16.24,15.25-19.78c9.17-3.65,17.64-1.91,25.08,4.39,14.83,12.57,29.55,25.27,44.32,37.91q62.1,53.19,124.25,106.34c8.18,7,13.12,15.3,10,26a29.87,29.87,0,0,1-8.48,13.72q-85.5,73.77-171.5,147a24.07,24.07,0,0,1-34.34-2.55c-9.1-10.67-7.71-25.5,3.46-35.07q72.49-62.16,145-124.25C728.3,386.53,729.68,385.25,731.61,383.52Z" transform="translate(-572.38 -212.37)"/></svg>