<svg xmlns="http://www.w3.org/2000/svg" viewBox="0 0 343.04 345.96"><g id="Capa_2" data-name="Capa 2"><g id="Capa_2-2" data-name="Capa 2"><path d="M82,158A75.87,75.87,0,0,1,6,85,75.81,75.81,0,0,1,18.48,40.2a70.11,70.11,0,0,1,6.82-8.85,80.47,80.47,0,0,1,8.36-8,76.8,76.8,0,0,1,9.28-6.53A78.61,78.61,0,0,1,53,11.69a76.11,76.11,0,0,1,98.32,39.18A76,76,0,0,1,134.42,137a75.57,75.57,0,0,1-18.64,13.09,76.72,76.72,0,0,1-22.17,7c-1.72.28-3.53.48-5.53.64S84,158,82,158c-3.86,0-3.86,6,0,6a82.15,82.15,0,0,0,47.4-15.09A82,82,0,0,0,160.84,59.5,82,82,0,0,0,7.35,48a83,83,0,0,0-5.7,50.6A82,82,0,0,0,69.06,163,85.86,85.86,0,0,0,82,164C85.83,164,85.83,158,82,158Z"/><path d="M161,79H22.44c-6.39,0-12.81-.17-19.2,0H3C-.9,79-.9,85,3,85H141.48c6.4,0,12.82.17,19.21,0H161c3.86,0,3.87-6,0-6Z"/><path d="M79,3V141.52c0,6.39-.16,12.81,0,19.21a2.43,2.43,0,0,1,0,.27c0,3.86,6,3.87,6,0V22.48c0-6.39.17-12.81,0-19.21V3c0-3.86-6-3.87-6,0Z"/><path d="M89.8,5.74c.14.18.27.36.42.54-.87-1-.17-.22.06.09l.7.93c1.44,2,2.82,4,4.13,6.09,2,3.12,3.86,6.33,5.61,9.6,1,2,2.06,4,3,6,.51,1.07,1,2.14,1.49,3.22.24.53.48,1.07.71,1.61l.36.82c.07.16.13.32.2.47l0,.12a137.82,137.82,0,0,1,9.23,33c.12.83.13.94.25,1.92q.15,1.22.27,2.43c.16,1.59.28,3.18.38,4.78.2,3.33.26,6.68.17,10a107.09,107.09,0,0,1-2.53,20.69A123.48,123.48,0,0,1,93.89,152.8c-1.32,1.85-2.69,3.67-4.09,5.46a3.1,3.1,0,0,0,0,4.24c1,1,3.23,1.28,4.24,0,11-13.93,19.73-29.58,24.54-46.71a117.07,117.07,0,0,0,3.76-42.88,135.07,135.07,0,0,0-8.47-35.48,152.65,152.65,0,0,0-12.25-24.95A73.75,73.75,0,0,0,94.15,1.64,1.71,1.71,0,0,1,94,1.5a3,3,0,0,0-4.24,0,3.07,3.07,0,0,0,0,4.24Z"/><path d="M68.83,1.65A87.15,87.15,0,0,0,63,10.34,150.78,150.78,0,0,0,51.9,33.16a144,144,0,0,0-8.69,34.05,128,128,0,0,0,1.57,41.87A138,138,0,0,0,64.36,156c1.29,2,2.63,3.95,4,5.89a3.08,3.08,0,0,0,4.1,1.08,3,3,0,0,0,1.08-4.11A138.32,138.32,0,0,1,51.82,113a121.81,121.81,0,0,1-3.12-41c.3-3.36.61-5.74,1.16-9q.73-4.42,1.77-8.78a140.55,140.55,0,0,1,4.72-15.84c.84-2.34,1.75-4.66,2.71-7a1.74,1.74,0,0,1,.13-.3l.33-.79c.24-.54.48-1.09.73-1.63.45-1,.92-2,1.39-3q2.47-5.2,5.35-10.2a110.16,110.16,0,0,1,6.44-10c.17-.24.49-.64-.36.46a3.1,3.1,0,0,0,0-4.24c-1-1-3.25-1.29-4.24,0Z"/><path d="M181,208v79.75c0,3.68-.13,7.4,0,11.09a.86.86,0,0,1,0,.16,3,3,0,0,0,1.49,2.59l7.89,4.45,18.8,10.6,22.64,12.78,19.5,11c3,1.7,6,3.54,9.1,5.13,1.73.89,2.9.16,4.29-.64l4.87-2.82,17.63-10.17L309.58,319l20.31-11.72L341,300.89l.52-.3A3,3,0,0,0,343,298V219.15c0-3.17.17-6.39,0-9.56-.1-2-1.6-2.67-3-3.54L334.8,203l-17.88-10.76-22.2-13.38-19.89-12L264,160.32l-.51-.3a3,3,0,0,0-3,0l-7.78,4.53-18.58,10.81L211.51,188.5l-19.43,11.31c-3.16,1.83-6.41,3.57-9.5,5.52l-.13.08c-3.34,1.94-.32,7.13,3,5.18l7.78-4.53,18.58-10.81,22.58-13.14,19.43-11.31,6.44-3.75c1-.58,2.1-1.11,3.06-1.78l.13-.07h-3l7.79,4.69,18.58,11.19,22.48,13.54,19.54,11.77c3.12,1.88,6.21,4.05,9.47,5.7l.14.09L337,209.59V294.4c0,1.14-.08,2.31,0,3.44a.85.85,0,0,1,0,.16l1.49-2.59-7.74,4.47-18.6,10.73-22.51,13L270,334.88l-6.39,3.68c-1,.59-2.11,1.11-3.07,1.77l-.13.08h3L255.72,336,237.1,325.53l-22.53-12.71-19.48-11-6.42-3.62c-1-.57-2-1.24-3.06-1.72l-.13-.08L187,299V219.26c0-3.69.14-7.41,0-11.1V208C187,204.14,181,204.13,181,208Z"/><path d="M338.45,207l-7.74,4.28-18.59,10.3-22.61,12.53-19.46,10.78c-3.12,1.73-6.47,3.29-9.46,5.25l-.14.07h3l-7.77-4.46L237.06,235l-22.45-12.9-19.51-11.2c-3.16-1.82-6.27-3.75-9.49-5.45l-.13-.08c-3.36-1.93-6.38,3.26-3,5.18l7.77,4.46,18.65,10.72,22.56,12.95,19.4,11.15c3.15,1.81,6.26,3.77,9.49,5.45,1.62.84,2.81.27,4.17-.48l4.67-2.59,17.58-9.74L309.32,230l20.46-11.33L341,212.47l.53-.29c3.38-1.88.35-7.06-3-5.18Z"/><path d="M305,186.82l-13.24,8.73L264,213.81,239.14,230.2l-5.85,3.86a3.67,3.67,0,0,0-1.93,3c-.05,1.25,0,2.51,0,3.76v29.66l4.51-2.59-19.08-8.51,1.49,2.59V226l-1.49,2.59,7.32-4.7,17.56-11.27L262.92,199l18.37-11.79c3-1.9,6-3.74,8.9-5.72l.14-.08a3.06,3.06,0,0,0,1.07-4.11,3,3,0,0,0-4.1-1.07l-13.9,8.92-28.83,18.51-25.3,16.24c-1.77,1.14-3.58,2.25-5.33,3.42a3.73,3.73,0,0,0-1.66,3.34V262a2.94,2.94,0,0,0,1.49,2.59l19.07,8.51c2,.9,4.52-.13,4.52-2.59V237l-1.49,2.59,7.2-4.75,17.17-11.32,20.87-13.75,18-11.85c2.93-1.92,5.9-3.8,8.79-5.79L308,192a3.07,3.07,0,0,0,1.08-4.1,3,3,0,0,0-4.11-1.08Z"/><path d="M259,252.8v79.07c0,3.65-.13,7.33,0,11a.75.75,0,0,1,0,.15c0,3.86,6,3.87,6,0V263.94c0-3.65.14-7.33,0-11v-.16c0-3.86-6-3.86-6,0Z"/><path d="M160.46,288.1a156.29,156.29,0,0,1-28.21-2.46,138.17,138.17,0,0,1-24.61-6.91l-2.71-1.07-.88-.37-1.44-.63c-1.77-.77-3.52-1.59-5.25-2.44q-5.08-2.52-10-5.46-4.65-2.82-9.06-6c-.69-.5-1.37-1-2-1.52l-1-.77c-.45-.34-.09-.06,0,0l-.69-.55c-1.34-1.05-2.65-2.12-3.95-3.23a142.85,142.85,0,0,1-14-13.64q-3-3.33-5.77-6.85c-.22-.27-.43-.55-.65-.83l-.39-.5c.43.56.18.23.08.11l-1.37-1.81c-.85-1.14-1.68-2.28-2.49-3.44A156.18,156.18,0,0,1,32.36,206.2q-1-2.16-2-4.35l-.2-.47c-.22-.51.35.84.07.18l-.37-.91c-.22-.54-.44-1.08-.65-1.62-.48-1.21-.9-2.45-1.34-3.67a1,1,0,0,1-.05-.16c-.84-2.66-5.15-3-5.79,0l-5.06,24L8.93,257.39,7.07,266.2a3.07,3.07,0,0,0,2.1,3.69,3,3,0,0,0,3.69-2.09l5.06-24L26,205.61l1.86-8.81H22.07A94,94,0,0,0,26.16,207,155.42,155.42,0,0,0,38.9,229.86,153.37,153.37,0,0,0,63,258a136.1,136.1,0,0,0,37.21,24.17,148.25,148.25,0,0,0,52.58,11.8c2.55.12,5.1.17,7.65.17,3.86,0,3.87-6,0-6Z"/><path d="M24.17,195.89l26.38,5.75,42,9.16,9.6,2.09a3.07,3.07,0,0,0,3.69-2.09,3,3,0,0,0-2.1-3.69l-26.38-5.75-42-9.16-9.6-2.09a3.07,3.07,0,0,0-3.69,2.09,3,3,0,0,0,2.1,3.69Z"/><path d="M179,48a78.79,78.79,0,0,1,9.84.07c1.68.09,3.36.21,5,.37l2.91.3,1.45.17.67.08.38,0c.57.07-.73-.1-.19,0,4.7.67,9.36,1.51,14,2.61a142.83,142.83,0,0,1,15.8,4.76c1.43.53,2.85,1.07,4.26,1.64l.93.38.51.21c.68.28-.43-.18,0,0,.73.3,1.45.62,2.17.94q4.35,1.93,8.56,4.18a130.13,130.13,0,0,1,17.41,11.18l.41.32.23.18,1,.82c.69.55,1.38,1.11,2.06,1.68,1.46,1.22,2.89,2.46,4.29,3.74q4.26,3.9,8.17,8.15a129.93,129.93,0,0,1,14.82,19.58,157.74,157.74,0,0,1,12.74,25.3q1.4,3.53,2.64,7.1A3.09,3.09,0,0,0,312,144a3,3,0,0,0,2.9-2.2l4.75-26.17,7.52-41.36,1.73-9.47a3.08,3.08,0,0,0-2.1-3.69,3,3,0,0,0-3.69,2.09l-4.76,26.17-7.52,41.36-1.72,9.47h5.79c-6.32-18-15.28-35-27.52-49.77a131.45,131.45,0,0,0-34.42-29.26,138.73,138.73,0,0,0-34.21-14.28,146.15,146.15,0,0,0-27.32-4.66A83.61,83.61,0,0,0,179.13,42H179a3.08,3.08,0,0,0-3,3,3,3,0,0,0,3,3Z"/><path d="M313.76,139.11,288,133.69l-41-8.62-9.33-2a3.07,3.07,0,0,0-3.69,2.09,3,3,0,0,0,2.1,3.69l25.72,5.42,40.95,8.62,9.33,2a3.07,3.07,0,0,0,3.69-2.09,3,3,0,0,0-2.1-3.69Z"/></g></g></svg>