<svg id="Capa_1" data-name="Capa 1" xmlns="http://www.w3.org/2000/svg" viewBox="0 0 524.33 585.43"><path d="M613,606.78c-.91,11.19.63,12.93,10.44,12.94q59.77,0,119.54,0c8.92,0,10.42-1.52,10.43-10.4,0-12.12,0-24.25,0-37.31-6.29,0-12.2.08-18.11,0-7.63-.12-12.49-4.27-12.63-10.61-.14-6.5,5-11.1,12.8-11.16,12.13-.09,24.26,0,36.6,0,1.38-10.27,2.33-20.32,4.13-30.21,4.92-27.07,15.44-51.82,32.46-73.52,25.19-32.15,37.33-68.35,36-109.28C842.3,266.37,790,202.56,720.92,186.82c-89.64-20.43-177,34.3-196.12,123.82-9.87,46.11-1,89.25,26.71,127.58,18.44,25.53,33.18,52.43,38.74,83.7,1.62,9.15,2.4,18.45,3.64,28.26h12.33q37,0,74.11,0c5.1,0,9.53,1.06,12.19,5.86a10.64,10.64,0,0,1-7.42,15.68,39.79,39.79,0,0,1-6.56.3q-43,0-86.06,0c-15,0-20.71-5.41-21-20.2-.78-35-12.17-66.31-33.12-94.13-18.4-24.44-30.77-51.36-36.22-81.55-15.38-85.15,32.57-171,113.43-202.63C724.11,131,843.21,197.38,863.65,312.19c9.4,52.75-2.3,101-34.86,143.53-21.59,28.21-32.82,59.67-34.15,94.94-.58,15.34-3.78,19-19.5,22v25.88c0,5,.07,10,0,14.94-.3,14.78-10.47,26-25.19,27.85a47.54,47.54,0,0,1-6,.35q-61,0-121.93,0c-16.1,0-27.93-8.19-30.34-22.3-1.42-8.33-1-17.09-.46-25.59.34-5.33,4.61-8.56,9.89-8.71q17.61-.51,35.25,0a10.81,10.81,0,0,1,.1,21.61C628.76,607.09,621,606.78,613,606.78Z" transform="translate(-420.84 -91.28)"/><path d="M544.9,337.07c2.41-39.09,17.1-70.45,47.93-93.34a104.75,104.75,0,0,1,15.28-9.22c6.41-3.24,12.48-1.26,15.33,4.36s.81,11.52-5.5,14.95c-33.34,18.07-48.93,46.92-51.07,83.95a63.74,63.74,0,0,1-.58,8.31,10.75,10.75,0,0,1-21.32-.8A63.55,63.55,0,0,1,544.9,337.07Z" transform="translate(-420.84 -91.28)"/><path d="M683.6,654.78c7.55,0,15.11-.14,22.65.05,7.31.17,11.6,4.35,11.59,10.81s-4.46,10.85-11.61,10.93q-23.25.28-46.5,0c-7.15-.09-11.58-4.6-11.58-11s4.3-10.62,11.6-10.79C667.7,654.65,675.65,654.78,683.6,654.78Z" transform="translate(-420.84 -91.28)"/><path d="M693.43,118c0,5.17.19,10.35,0,15.51-.32,7.24-4.6,11.6-11,11.6s-10.74-4.35-10.92-11.62q-.36-15.21,0-30.42c.16-7,4.87-11.77,10.94-11.77s10.53,4.8,11,11.79c0,.4,0,.8,0,1.19q0,6.87,0,13.72Z" transform="translate(-420.84 -91.28)"/><path d="M495.37,165.6c3.75,2,6.75,2.91,8.79,4.84,7.51,7.09,14.82,14.41,22,21.87,5,5.19,4.94,11.46.38,15.93s-10.74,4.3-15.93-.74c-7.41-7.2-14.67-14.57-21.93-21.93-3.42-3.46-4.61-8-2.16-12C488.46,170.39,492.23,168.32,495.37,165.6Z" transform="translate(-420.84 -91.28)"/><path d="M846,212.45c-2.82-2.34-7-4.22-8.26-7.29s-1.11-8.57.88-10.87a336.72,336.72,0,0,1,24.69-25c4.05-3.78,10.28-3,14.1.79s4.56,10.37.62,14.58c-7.73,8.27-15.81,16.23-24,24C852.27,210.35,849.46,210.87,846,212.45Z" transform="translate(-420.84 -91.28)"/><path d="M503.58,479.72c-2.22,3.78-3.36,6.85-5.42,9-6.82,7.23-13.88,14.23-21,21.14-5.45,5.28-11.78,5.37-16.37.59-4.33-4.53-4.08-10.81.9-15.91q10.83-11.08,21.92-21.93c3.48-3.43,8.09-4.48,12-2C498.8,472.61,500.82,476.45,503.58,479.72Z" transform="translate(-420.84 -91.28)"/><path d="M873.83,468.13c3.8,2,6.79,2.94,8.81,4.85,7.5,7.1,14.78,14.45,22,21.88,4.83,5,4.82,11.6.34,15.94s-10.54,4.35-15.48-.39c-7.61-7.28-15-14.79-22.34-22.35-3.31-3.41-4.84-7.88-2.15-12C867,473,870.68,470.87,873.83,468.13Z" transform="translate(-420.84 -91.28)"/><path d="M918.3,333.38c5.37,0,10.74-.18,16.1,0,6.48.27,10.6,4.42,10.76,10.4A10.56,10.56,0,0,1,934.49,355c-10.72.3-21.47.29-32.19,0a10.91,10.91,0,0,1-10.92-11.12c.14-6,4.73-10.2,11.41-10.56.4,0,.8,0,1.2,0H918.3Z" transform="translate(-420.84 -91.28)"/><path d="M447.89,333.4c5.36,0,10.74-.2,16.09.05,6.21.3,10.61,4.92,10.63,10.67,0,5.46-4.12,10.59-9.93,10.8-11.31.41-22.66.42-34,0-6.16-.23-10.11-5.37-9.86-11.32.24-5.76,4.2-9.87,10.34-10.16C436.75,333.19,442.32,333.4,447.89,333.4Z" transform="translate(-420.84 -91.28)"/></svg>