<svg xmlns="http://www.w3.org/2000/svg" viewBox="0 0 227.84 221.89"><g id="Capa_2" data-name="Capa 2"><g id="Capa_3" data-name="Capa 3"><path d="M8.61,119H36.8l-4.5-4.5v90.24c0,4.16-.12,8.34,0,12.5v.18a4.57,4.57,0,0,0,4.5,4.5H83.14a4.57,4.57,0,0,0,4.5-4.5V143.22l-4.5,4.5h64.64l-4.5-4.5v74.17a4.57,4.57,0,0,0,4.5,4.5H194.1a4.57,4.57,0,0,0,4.5-4.5V125.68c0-4.23.21-8.53,0-12.76v-.18l-4.5,4.5h29.33c4,0,5.79-4.86,3.18-7.68L201.44,82.35l-3.58-3.86,1.32,3.18V14.42a4.57,4.57,0,0,0-4.5-4.5H156.16a4.57,4.57,0,0,0-4.5,4.5V46.05l7.68-3.18-14.1-14.1L122.9,6.42l-5.14-5.13a4.56,4.56,0,0,0-6.36,0L100,12.65l-27,27-31.7,31.7L15.24,97.45,4,108.67l-2.77,2.77c-2.68,2.68-.78,7.84,3.18,7.69L8.61,119a4.5,4.5,0,0,0,0-9l-4.18.16,3.18,7.68,11.74-11.74L44.09,81.33,75.66,49.76l28.11-28.12c4.59-4.58,9.4-9,13.81-13.8l.18-.19H111.4l14.09,14.1L147.84,44.1,153,49.23a4.56,4.56,0,0,0,7.69-3.18V14.42l-4.5,4.5h38.52l-4.5-4.5V61.67c0,6.55-.15,13.11,0,19.65a5.71,5.71,0,0,0,1.5,3.73c.7.79,1.44,1.55,2.16,2.33l9,9.73c5.68,6.15,11.24,12.46,17.08,18.46l.33.35,3.18-7.68H194.1a4.57,4.57,0,0,0-4.5,4.5v91.71c0,4.23-.2,8.53,0,12.76a1.08,1.08,0,0,1,0,.18l4.5-4.5H147.78l4.5,4.5V143.22a4.56,4.56,0,0,0-4.5-4.5H83.14a4.56,4.56,0,0,0-4.5,4.5v74.17l4.5-4.5H36.8l4.5,4.5V127.14c0-4.16.11-8.34,0-12.49v-.18a4.57,4.57,0,0,0-4.5-4.5H8.61a4.5,4.5,0,0,0,0,9Z"/></g></g></svg>