<svg id="Capa_1" data-name="Capa 1" xmlns="http://www.w3.org/2000/svg" viewBox="0 0 574.34 574.29"><path d="M969.7,520.35c-5.41,15.92-16.84,21.46-33.21,21.34-61.3-.42-122.62-.17-183.93-.17h-7.19c-.13,2.12-.34,3.9-.34,5.69,0,15.88.14,31.77-.12,47.66-.07,4.16,1.45,6.32,4.9,8.31,11.33,6.52,22.39,13.51,33.71,20,4.59,2.65,6.62,6.17,6.5,11.39-.17,7.47.06,14.95-.07,22.43-.12,7.21-3.16,10.23-10.34,10.24q-97,0-194,0c-7.21,0-10.29-3-10.41-10.16-.13-7.48.11-15-.08-22.43-.13-5.21,1.85-8.76,6.44-11.42,11.8-6.82,23.45-13.9,35.05-21.06,1.51-.93,3.35-2.92,3.36-4.44.24-18.48.15-37,.15-56.24H426.47c-20.87,0-31.05-10.13-31.05-30.87V352.52a50,50,0,0,1,.07-5c.49-4.81,4-8,8.55-7.82,4.85.22,7.48,3,8.13,7.67a36.79,36.79,0,0,1,.09,5v118H952.4V154.78h-5.8c-15.14,0-30.28,0-45.42,0-6.66,0-10.31-3-10.33-8.35s3.69-8.46,10.26-8.48c17-.06,34,0,51.55,0,0-7,.43-13.64-.15-20.24-.4-4.48-3.83-7.15-8.41-7.72a50.51,50.51,0,0,0-6.16-.12q-255.42,0-510.85,0c-12.36,0-14.83,2.44-14.83,14.64v13.44h441a28.07,28.07,0,0,1,6.69.32c4.28,1.07,6.78,4,6.53,8.54s-2.9,7.2-7.33,7.84a45.56,45.56,0,0,1-6.72.15H412.26v7q0,71.49,0,143a27.34,27.34,0,0,1-.17,5.59c-.91,4.33-3.62,6.95-8.19,7s-7.29-2.58-8.27-6.88a25.33,25.33,0,0,1-.2-5.59V125.45c0-18.83,4.17-25.18,21.31-32.45H948.39c10.91,3.31,18,10.43,21.31,21.31ZM952.84,488H412.69a8.64,8.64,0,0,0-.36,1.51q-.06,10.38-.07,20.75c0,11.79,2.62,14.37,14.59,14.37H938.28c1.68,0,3.37.1,5-.06,5.77-.55,9.34-4,9.47-9.82C953,506,952.84,497.22,952.84,488ZM637,541.73c0,19.5-.1,38.34.18,57.18,0,1.61,2.25,3.75,4,4.68,27.36,14.81,54.86,14.72,82.43.43,3.3-1.71,4.72-4,4.65-7.94-.27-15.5-.11-31-.11-46.52v-7.83ZM773.12,650.21a35.85,35.85,0,0,1,0-5.55c1.09-6.07-1.56-9.44-6.9-12.25-8.74-4.6-17-10.2-25.58-15a7.63,7.63,0,0,0-6.34-.14q-51.78,28.74-103.45,0a7.06,7.06,0,0,0-5.85-.23c-10.22,5.81-20.28,11.9-30.26,18.12a6.59,6.59,0,0,0-2.65,4.33,97.1,97.1,0,0,0-.12,10.7Z" transform="translate(-395.37 -93)"/><path d="M682.12,451.56h-157c-10.52,0-12.88-2.35-12.89-12.83q0-126.18,0-252.35c0-10.06,2.48-12.52,12.63-12.52H840.57c9.73,0,12.33,2.58,12.33,12.26q0,126.74,0,253.48c0,9.29-2.68,12-12.07,12ZM835.75,245H529.37V434.35H835.75Zm-306.36-17.5H835.62V191.16H529.39Z" transform="translate(-395.37 -93)"/><path d="M728,298.79c-1.79,3-2.72,5.54-4.45,7.28q-34.9,35.15-70,70.09c-4.19,4.17-9.44,4.33-12.88.75s-3.17-8.39.87-12.44q35.16-35.3,70.44-70.49c2.92-2.93,6.49-4.41,10.07-2.18C724.36,293.29,725.85,296.24,728,298.79Z" transform="translate(-395.37 -93)"/><path d="M778.65,335.16l-25-24.9c-1.2-1.18-2.4-2.36-3.56-3.56-4.51-4.66-5.08-9.64-1.54-13.29,3.73-3.82,8.5-3.46,13.24,1.19,6.52,6.4,13,12.91,19.42,19.37,4.88,4.88,9.85,9.69,14.6,14.69,4.16,4.37,4.33,8.61.2,12.81q-17.44,17.77-35.24,35.23c-3.65,3.59-8.81,3.57-12.07.43s-3.33-8.61.48-12.48C758.68,355,768.38,345.4,778.65,335.16Z" transform="translate(-395.37 -93)"/><path d="M586.58,335.14c9.62,9.63,18.85,18.82,28,28.08,1.42,1.44,3,3,3.69,4.82,1.35,3.8.79,7.54-2.9,9.89-4,2.52-7.85,2-11.19-1.36q-11.72-11.65-23.35-23.36c-3.83-3.83-7.73-7.58-11.46-11.5-4.16-4.36-4.35-8.6-.23-12.8q17.46-17.76,35.23-35.23c3.86-3.8,8.53-3.79,12-.49s3.55,8.54-.3,12.46C606.55,315.37,596.83,324.91,586.58,335.14Z" transform="translate(-395.37 -93)"/><path d="M772.2,218.3a9.28,9.28,0,0,1-8.73-9.24,8.92,8.92,0,0,1,9.24-8.56,8.66,8.66,0,0,1,8.61,9.08A9,9,0,0,1,772.2,218.3Z" transform="translate(-395.37 -93)"/><path d="M808.67,218.32a9.28,9.28,0,0,1-9.23-8.75,8.89,8.89,0,0,1,8.73-9.07,8.65,8.65,0,0,1,9.1,8.58A9,9,0,0,1,808.67,218.32Z" transform="translate(-395.37 -93)"/><path d="M736.72,200.5a8.69,8.69,0,0,1,8.67,9.05,9,9,0,0,1-9.12,8.75,9.24,9.24,0,0,1-8.75-9.2A8.9,8.9,0,0,1,736.72,200.5Z" transform="translate(-395.37 -93)"/></svg>