<svg id="Capa_1" data-name="Capa 1" xmlns="http://www.w3.org/2000/svg" viewBox="0 0 504.65 516.73"><path d="M485.32,250.63c0-13.91,0-27.2,0-40.48,0-10.93,3.59-14.53,14.54-14.53,47.71,0,95.42.29,143.13-.2,14.36-.14,26.16,3.74,35.51,14.69,1.17,1.37,2.61,2.51,4.53,4.34,3-2.94,6-5.82,8.94-8.73,7.67-7.55,17-10.68,27.59-10.07,6.63.38,10.84,4.42,11.05,10.5.22,6.3-4.09,11.65-10.73,11.4-12.79-.49-17.47,10.3-25,17-1.2,1.06-.79,4.19-.79,6.36q0,127,0,254.07c0,10.79-3.78,16.13-11.27,15.94-7.27-.19-10.77-5.31-10.77-15.83q0-126.74.1-253.46c0-4.83-1.68-8-4.71-11.67-8-9.73-17.65-12.72-30.23-12.48-40.62.75-81.26.28-121.9.28h-7.77V538.41c0,7.69,0,7.7,8,7.7,42,0,84.1.4,126.14-.2,15.43-.23,28.24,3.53,38.12,15.68a27.58,27.58,0,0,0,2.94,2.73c.66-.26,1.15-.29,1.36-.55,11.38-14.63,26.52-18.31,44.52-17.93,41,.86,82.07.2,123.11.37,5,0,7-.8,7-6.51q-.28-158-.15-315.91c0-1.78-.18-3.57-.32-6.06-4.45,0-8.64.15-12.81,0-7-.3-11.88-5.16-11.7-11.36s4.82-10.5,11.65-10.67c7.68-.19,15.36-.17,23,0,8.17.17,12.2,4.25,12.26,12.51.12,13.9,0,27.81,0,42.47,6.65,0,12.84,0,19,0,20.67.14,35.58,14.86,35.59,35.58q.11,148.56,0,297.12c0,21-14.87,35.79-36,35.82q-79.46.14-158.9-.07c-6.91,0-11.9,2-15.82,7.89-7.06,10.53-17.36,15.33-29.95,15.34-8.09,0-16.18.11-24.26,0-11.87-.21-21.73-4.84-28.42-14.72-4.2-6.2-9.34-8.52-16.76-8.49-52.16.21-104.32.12-156.47.11-23.87,0-38-14.18-38-38.12q0-146.13,0-292.26c0-24.31,14-38.17,38.48-38.18Zm395.34,22.2V552c0,13.24-3.1,16.28-16.54,16.28-48.31,0-96.63.06-145-.07-5.67,0-10.14,1.62-14,5.78-4.25,4.6-8.75,9-13.27,13.32-6.2,6-11.73,5.91-18-.13-4.21-4.07-8.45-8.14-12.38-12.48-4.23-4.69-9.17-6.5-15.54-6.47-48.32.19-96.64.11-145,.1-12.42,0-15.73-3.35-15.73-15.89V272.72H470.54c-13.88,0-17.78,3.84-17.78,17.51q0,144.61,0,289.24c0,13.69,3.91,17.57,17.72,17.58,51.75,0,103.51.15,155.26-.1,14.32-.07,25.19,5.08,33.68,16.73,2.36,3.25,7.43,5.72,11.55,6.22a104.66,104.66,0,0,0,24.19,0c4-.44,8.91-2.76,11.12-5.87,8.8-12.39,20.35-17.23,35.33-17.12,51.34.34,102.7.14,154,.13,13.68,0,17.56-3.93,17.56-17.74V290.67a53.2,53.2,0,0,0-.13-6.06c-.76-6.81-4.93-11.26-11.76-11.69C894.73,272.5,888.08,272.83,880.66,272.83Z" transform="translate(-430.67 -125.63)"/><path d="M822.6,272.33c0,37.78.16,75.57-.19,113.35a27.81,27.81,0,0,1-4.34,14c-7.38,11.57-15.51,22.66-23.45,33.87-7.24,10.24-17.48,10.28-24.7.08-8.16-11.54-16.44-23-24.13-34.87A24.11,24.11,0,0,1,742,386.38q-.35-113.36-.12-226.72c0-20.9,13.4-33.87,34.3-34,4.85,0,9.7-.08,14.55,0,18.15.42,31.78,13.91,31.85,32.05C822.7,195.94,822.59,234.14,822.6,272.33Zm-22.47,77.81V217h-35.7a10.62,10.62,0,0,0-.19,1.08q-.07,82.7-.1,165.38a8.48,8.48,0,0,0,1.14,4.54c5.39,8,11,15.85,17,24.45,4.77-6.81,8.69-13.43,13.63-19.17,5.39-6.26,5.15-13.07,4.27-21.08-4.57,0-9,.14-13.36,0-7.32-.27-11.75-4.61-11.65-11.13s4.73-10.71,12-10.92C791.32,350,795.53,350.14,800.13,350.14Zm.38-156.08c0-12.64.2-24.71-.09-36.77a9,9,0,0,0-8.72-9.23A130,130,0,0,0,773,148c-4.62.3-8.43,3.1-8.58,7.88-.41,12.61-.14,25.23-.14,38.16Z" transform="translate(-430.67 -125.63)"/><path d="M585.25,392.71c-11.92,0-23.85,0-35.78,0-8.88,0-13.54-3.93-13.45-11.13.09-6.85,4.88-10.88,13.19-10.89q36.39-.06,72.78,0c8.13,0,13.2,4.26,13.3,10.93s-4.92,11-13,11.09C609.92,392.75,597.59,392.7,585.25,392.71Z" transform="translate(-430.67 -125.63)"/><path d="M585.49,447.28c-12.34,0-24.67.06-37,0-7.93-.06-12.43-4.11-12.47-10.9s4.66-11.08,12.35-11.1q37.3-.11,74.6,0c7.45,0,12.49,4.81,12.33,11.27-.17,6.31-4.94,10.64-12.21,10.71C610.55,447.35,598,447.28,585.49,447.28Z" transform="translate(-430.67 -125.63)"/><path d="M585.7,283.63c-12.34,0-24.67.08-37,0-8.27-.07-12.86-4.29-12.67-11.31.17-6.65,4.88-10.71,12.74-10.72q36.69-.07,73.38,0c8.05,0,13.16,4.42,13.14,11.09s-5,10.91-13.21,11C610,283.69,597.83,283.63,585.7,283.63Z" transform="translate(-430.67 -125.63)"/><path d="M568.32,501.85c-6.85,0-13.7.11-20.54,0-7.33-.15-11.74-4.37-11.76-10.93s4.57-11,11.72-11q20.24-.18,40.48,0c7.06.06,11.9,4.71,11.92,11s-4.78,10.82-11.88,11C581.62,502,575,501.85,568.32,501.85Z" transform="translate(-430.67 -125.63)"/><path d="M568.26,338.18c-6.85,0-13.7.14-20.55,0-7.35-.19-11.7-4.44-11.69-11s4.59-10.92,11.79-11q20.24-.21,40.48,0c7,.08,11.88,4.86,11.85,11.09s-4.78,10.75-11.95,10.93C581.55,338.32,574.9,338.18,568.26,338.18Z" transform="translate(-430.67 -125.63)"/></svg>