<svg id="Capa_1" data-name="Capa 1" xmlns="http://www.w3.org/2000/svg" viewBox="0 0 391.61 417.76"><path d="M512.05,399.1c-5.27,0-9.93.07-14.58,0-6.71-.13-10.13-3.54-10.18-10.31-.08-11.2.12-22.41-.09-33.61-.09-4.59,1.58-7.88,4.93-10.9q55.38-49.81,110.64-99.79l70.38-63.53c8.55-7.71,11.07-7.75,19.49-.15q90.51,81.65,181.05,163.27c3.5,3.15,5.21,6.57,5.11,11.34-.23,11,0,22.08-.09,33.11-.05,7.07-3.43,10.48-10.42,10.61-4.51.09-9,0-14.33,0v6.54q0,86.79,0,173.59c0,11.17-2.41,13.6-13.43,13.6H747.22c-11,0-13.38-2.4-13.39-13.63,0-23.07.12-46.15,0-69.23-.16-24.55-14.62-44.38-36.59-50.61-33.3-9.45-64.69,14.76-65,50.36-.22,23.41,0,46.83-.05,70.24,0,10.18-2.65,12.87-12.64,12.87H524.69c-10,0-12.64-2.7-12.64-12.88q0-87,0-174.08ZM683,196.82c-12,10.86-23.7,21.36-35.35,31.88q-69.25,62.49-138.46,125c-1.51,1.37-3.4,3.29-3.5,5-.4,7.13-.17,14.29-.17,22.06H517.4c10.36,0,13,2.66,13,13.08V574.22h83.42c0-21.79-.19-43.18.12-64.57a80.73,80.73,0,0,1,2.55-19.78c9-33.31,41.54-54.92,75.19-50.37a69.28,69.28,0,0,1,60.43,68c.22,20.56,0,41.13.07,61.69,0,1.75.16,3.5.24,5.14H835.6v-6.19q0-87.53,0-175c0-9.36,2.9-12.22,12.31-12.25,4.1,0,8.21,0,12.58,0,0-6.53-.24-12.22.08-17.88.23-4.18-1.05-7-4.25-9.91q-59.55-53.42-118.85-107.11C719.48,229.7,701.48,213.49,683,196.82Z" transform="translate(-487.2 -175.12)"/><path d="M682.93,399.14c-19.37,0-38.75.17-58.12-.18a13.65,13.65,0,0,1-9-4c-4.47-5.07-.84-13,5.91-14a36.18,36.18,0,0,1,5-.18H739.42c1.17,0,2.34,0,3.5.05,5.28.35,9,3.93,9.2,8.74a9.19,9.19,0,0,1-9.06,9.44c-5.17.24-10.36.08-15.53.08Z" transform="translate(-487.2 -175.12)"/></svg>