<svg id="Capa_1" data-name="Capa 1" xmlns="http://www.w3.org/2000/svg" viewBox="0 0 533.71 419.69"><path d="M683.27,228.45q54.6,0,109.22,0c22.92,0,34.29,11.42,34.3,34.32q0,87.17,0,174.34c0,22.8-11.49,34.27-34.38,34.28q-109.23,0-218.44,0c-23.27,0-34.61-11.39-34.61-34.67q0-87.18,0-174.34c0-22.45,11.49-33.91,34.07-33.93Q628.35,228.4,683.27,228.45ZM562.52,305.33c-.11,2.48-.26,4.32-.26,6.15q0,63.28,0,126.56c0,9.26,1.49,10.7,10.9,10.7H792.81c9.74,0,11.09-1.35,11.09-11.15q0-63,0-125.93v-6.33ZM562.35,282H803.91c0-6.66,0-13,0-19.36,0-10.31-1.21-11.53-11.29-11.53h-219c-1.45,0-2.89,0-4.34,0-4.14.18-6.74,2.34-6.84,6.48C562.2,265.63,562.35,273.64,562.35,282Z" transform="translate(-416.14 -174.16)"/><path d="M683.58,503.13H925c17.31,0,25,7.71,24.87,25-.2,38.13-27.66,65.64-65.9,65.66q-200.76.09-401.53,0c-40.23,0-69-31.07-66.08-71,.84-11.55,9.45-19.59,21.47-19.63,30.2-.09,60.4,0,90.6,0Zm-244,22.76c-2.86,24.53,16.11,45.38,41.19,45.4q202.3.16,404.59-.12a47,47,0,0,0,18-3.94c16.28-7,26.55-26.2,22.78-41.34Z" transform="translate(-416.14 -174.16)"/><path d="M683.43,174.16H883.27c23.68,0,37.28,13.56,37.29,37.33q0,126.89,0,253.78a43.12,43.12,0,0,1-.17,5,11.23,11.23,0,0,1-10.56,10.31,11.41,11.41,0,0,1-11.6-9.24,39.73,39.73,0,0,1-.32-7.41q0-125.65,0-251.3c0-12.55-3.34-16-15.67-16H483.79c-12.07,0-15.54,3.45-15.54,15.45q0,126.27,0,252.54a26.91,26.91,0,0,1-1,8.52c-1.82,5.37-6.16,7.89-11.63,7.22s-9-3.91-9.8-9.62a37.13,37.13,0,0,1-.22-4.95q0-127.83,0-255.65c0-18.37,10.2-31.66,26.9-35.25a50.12,50.12,0,0,1,10.48-.71Q583.2,174.13,683.43,174.16Z" transform="translate(-416.14 -174.16)"/><path d="M683.15,559.9c-14.67,0-29.34.15-44,0-9.59-.14-15.2-7.74-11.85-15.62,2.12-5,6.23-7,11.39-7,29.55,0,59.1-.1,88.64,0,7.45,0,12.37,4.72,12.51,11,.14,6.52-5,11.47-12.67,11.56C712.49,560,697.82,559.9,683.15,559.9Z" transform="translate(-416.14 -174.16)"/></svg>