<svg xmlns="http://www.w3.org/2000/svg" viewBox="0 0 1042.76 326.44"><defs><style>.cls-1{fill:#fff;}</style></defs><g id="Capa_2" data-name="Capa 2"><g id="Capa_1-2" data-name="Capa 1"><rect class="cls-1" x="860.16" y="132.66" width="182.07" height="61.12"/><path class="cls-1" d="M432.06,174c-21.6,37.74-47.3,80.52-69,118.18-6.45,11.19-12.86,22.41-19.61,34.17h5c19.81,0,39.62-.15,59.43.12,4,.05,5.9-1.39,7.85-4.76Q458.29,247.74,501.15,174h0l4.08-7.06c14.94-25.72,30.09-51.3,45.17-76.93.58-1,1.33-1.86,2.34-3.25,17.24,29.68,34.2,58.89,51.16,88.11h-.08c.53,1.38,1.07,2.76,1.81,4.66h-5c-24.07,0-48.13,0-72.2-.06-3,0-4.7.83-6.27,3.6-9.31,16.42-18.86,32.69-28.3,49-.57,1-1,2.06-1.68,3.59h5.3c45.49,0,91,.06,136.47-.09,3.72,0,5.65,1.25,7.53,4.56,15.49,27.32,31.24,54.48,46.77,81.77,1.69,3,3.48,4.24,6.88,4.23,19.66-.09,39.32.08,59,.17h6.15c-1.17-2.22-2-3.94-3-5.61q-42.1-74.24-84.19-148.49c-25.79-45.79-51.32-91.74-77-137.62A72.85,72.85,0,0,0,573.74,9.75C561.42,1.23,549,.47,536.28,8.82a75.27,75.27,0,0,0-24.52,25.79Q475.39,98.08,439,161.55c-2.21,3.87-4.36,7.78-6.95,12.42h0"/><path class="cls-1" d="M168.7,270.14c-6,0-12.11,0-18.15-.31-2-.1-4-.22-6-.4a106.42,106.42,0,0,1-27.45-5.89c-1.7-.62-3.39-1.29-5-2-16.58-7.15-30.61-19-41.7-35.89A98.84,98.84,0,0,1,61.12,208q-1.8-4.54-3.15-9.2a105.91,105.91,0,0,1-3.06-14.2,126.73,126.73,0,0,1-1-24.55c.17-3.34.46-6.69.85-10.06A122.9,122.9,0,0,1,57,136.78a104.56,104.56,0,0,1,5.85-18A93.23,93.23,0,0,1,79,93.4a98.28,98.28,0,0,1,8.65-8.54,112.53,112.53,0,0,1,21-14.32,81.08,81.08,0,0,1,11.72-5.13,90.51,90.51,0,0,1,12.12-3.29,126.78,126.78,0,0,1,25.16-2.27q83.86.06,167.73,0h5.54V3.71h-5.29q-20.81,0-41.6,0c-41.61-.05-83.21-.1-124.81.2-3.36,0-6.72.1-10.1.24A191.63,191.63,0,0,0,119,7.59a161,161,0,0,0-32.21,10,142,142,0,0,0-14.53,7.32,134,134,0,0,0-13.43,8.9A131.44,131.44,0,0,0,46.47,44.3,145.38,145.38,0,0,0,20.84,77.64q-2.19,3.85-4.21,7.91C1.39,116.08-2.25,148.77,1.2,181.91c.5,4.73,1.14,9.48,1.91,14.22a163.07,163.07,0,0,0,11.86,40c.93,2.08,1.89,4.12,2.89,6.14a156.4,156.4,0,0,0,10.08,17.4q1.85,2.78,3.81,5.44a152.15,152.15,0,0,0,17.31,19.78,148.66,148.66,0,0,0,31.41,23.13q5.72,3.15,11.71,5.78t12.23,4.73q6.24,2.1,12.7,3.64a148.45,148.45,0,0,0,33.46,4c59,.34,118,.09,177,.09,1.13,0,2.25-.17,3.42-.26V270.17h-5.53Q247.06,270.17,168.7,270.14Z"/><polygon class="cls-1" points="1042.76 0 772.66 0 772.66 45.1 772.66 61.12 772.66 265.32 772.66 326.3 772.66 326.44 1042.76 326.44 1042.76 265.32 831.37 265.32 831.37 61.12 1042.76 61.12 1042.76 0"/></g></g></svg>