<svg xmlns="http://www.w3.org/2000/svg" viewBox="0 0 1040 251.51"><defs><style>.cls-1{fill:#fff;}</style></defs><g id="Capa_2" data-name="Capa 2"><g id="Capa_1-2" data-name="Capa 1"><path class="cls-1" d="M786.66,138.45c-16.68,28-36.52,59.71-53.28,87.63-5,8.3-9.93,16.62-15.14,25.34h3.83c15.3,0,30.59-.11,45.88.09,3.06,0,4.56-1,6.06-3.53q32.9-54.82,66-109.52h0c1-1.74,2.1-3.49,3.16-5.23,11.53-19.07,23.23-38,34.86-57,.45-.73,1-1.38,1.81-2.41l39.5,65.33h-.07c.42,1,.83,2,1.4,3.46h-3.9c-18.58,0-37.16,0-55.74-.05a4.83,4.83,0,0,0-4.84,2.67c-7.19,12.17-14.55,24.24-21.84,36.35-.44.73-.75,1.53-1.3,2.67h4.09c35.12,0,70.23,0,105.35-.07,2.88,0,4.36.92,5.82,3.38,12,20.26,24.12,40.4,36.1,60.64,1.31,2.2,2.69,3.14,5.32,3.13,15.17-.06,30.35.06,45.53.12,1.43,0,2.86,0,4.75,0-.9-1.64-1.56-2.92-2.29-4.15q-32.49-55.05-65-110.11c-19.91-33.95-39.61-68-59.41-102A54.92,54.92,0,0,0,896,16.68c-9.52-6.32-19.1-6.88-28.93-.68a56.9,56.9,0,0,0-18.93,19.11Q820.12,82.18,792,129.24c-1.71,2.87-3.37,5.77-5.37,9.21h0"/><rect class="cls-1" x="387.8" y="102.58" width="140.55" height="45.32"/><polygon class="cls-1" points="528.76 4.21 320.25 4.21 320.25 37.66 320.25 49.53 320.25 200.95 320.25 246.17 320.25 246.27 528.76 246.27 528.76 200.95 365.57 200.95 365.57 49.53 528.76 49.53 528.76 4.21"/><path class="cls-1" d="M284.17,28.37h.05a19.13,19.13,0,0,0-2-4.18A52.1,52.1,0,0,0,266,6.69c-9-6-18-6.55-27.28-.66a53.92,53.92,0,0,0-17.85,18.19A21.84,21.84,0,0,0,219,28.37h0L108.45,245l58.92,0,58.69-115V245.64h58.6V32.16A16.33,16.33,0,0,0,284.17,28.37Z"/><path class="cls-1" d="M65.67,28.82C59.31,13.59,41.44-3.21,22.52,5,5.33,13.15-.52,30.57,0,48.58V246.27h58.6v-116l44.47,86.91,29.46-57.59L89.2,74.87,72.61,42.43Z"/><path class="cls-1" d="M636.12,0V248.89h10.59v.2h26.16v-.2H683V46.64h83.93V0Z"/><rect class="cls-1" x="555.67" width="63.87" height="46.64"/></g></g></svg>