<svg id="Capa_1" data-name="Capa 1" xmlns="http://www.w3.org/2000/svg" viewBox="0 0 515.38 504.97"><path d="M608.16,262.81c7.88-.1,14.28,4.37,20.14,10.34,3,3.06,5.48,8.38,11.22,5.91,5.47-2.35,3.32-7.65,3.35-11.75.19-20.8,9.91-30.59,30.77-30.6,7.87,0,15.74-.13,23.6,0,14.79.32,25.64,11.18,26.06,25.94.1,3.45-.37,7,.18,10.34.35,2.15,1.7,5.29,3.31,5.81,2,.65,5.1-.39,7.08-1.69,2.67-1.75,4.69-4.48,7-6.74,10.77-10.3,26.54-10.47,37.32-.21q10.21,9.72,20,19.89c9.92,10.34,9.89,25.32.1,35.79-2.61,2.8-5.67,5.24-8,8.26-1.2,1.57-2.17,4.52-1.46,6a8.16,8.16,0,0,0,5.54,3.78c4.91.68,10,.11,14.9.76a25.06,25.06,0,0,1,22.13,24.16c.37,10.15.39,20.34,0,30.49-.5,12.55-9.82,22.37-22.28,24.06-3.22.44-6.51.25-9.75.56-3.77.36-8.41-1.66-10.6,3.41-2.35,5.42,2.72,7.3,5.21,10.35,1.32,1.62,3,3,4.43,4.51,9.55,10.35,9.69,25.19,0,35.36q-10.1,10.65-20.81,20.7C767.12,508.2,752,508,741.35,498c-2.24-2.1-4.1-4.74-6.62-6.36-2.32-1.48-5.64-3.07-7.88-2.42-1.69.49-2.92,4.34-3.38,6.87-.58,3.16-.05,6.5-.18,9.76-.6,14.17-11.34,25-25.48,25.35q-14.67.38-29.35,0c-14.14-.36-24.88-11.17-25.47-25.34-.14-3.45.38-7-.19-10.34-.39-2.34-1.7-5.83-3.35-6.33-2.13-.64-5.36.66-7.47,2.08-2.82,1.9-4.93,4.81-7.48,7.13C614,508,598.9,508,588.56,498.27c-7-6.58-13.77-13.37-20.42-20.28-10.16-10.56-10-25.63.08-36.19,2.13-2.22,4.75-4.08,6.39-6.6,1.49-2.27,3.13-5.55,2.49-7.75-.49-1.69-4.31-3-6.83-3.4-4.13-.64-8.44-.09-12.61-.6a25.44,25.44,0,0,1-22.92-25.29c-.21-9.2-.15-18.41,0-27.62.2-14.28,9.68-24.68,23.93-26.15,4.37-.45,8.87.15,13.2-.49a8.17,8.17,0,0,0,5.53-3.75c.71-1.49-.24-4.46-1.44-6-2.3-3-5.38-5.44-8-8.24-9.8-10.41-9.83-25.46.09-35.78,6.52-6.77,13.3-13.29,20-19.9C593.34,264.91,599.83,262.57,608.16,262.81ZM810.79,383.94c0-4-.06-8.06,0-12.09.11-4.77-2.13-7.12-6.91-7.12-4,0-8.07.1-12.08-.17-10.58-.7-18-6.24-22.17-15.79-4.27-9.82-2.94-19.15,4.14-27.35,2.75-3.19,5.91-6,8.85-9,2.74-2.82,2.89-5.8.1-8.61-6.21-6.26-12.51-12.44-18.81-18.62-2.84-2.8-5.74-2.68-8.57.07s-5.64,5.77-8.67,8.42c-8.51,7.41-18.19,8.77-28.38,4.31-10-4.39-15.43-12.28-15.72-23.38-.09-3.45-.05-6.9,0-10.36,0-4.38-1.88-6.85-6.54-6.83-8.63.05-17.26,0-25.9,0-4.31,0-6.3,2.24-6.36,6.4-.06,3.64,0,7.29-.07,10.93-.36,11.08-5.76,19-15.83,23.3s-19.89,3-28.38-4.47c-2.72-2.41-5.28-5-7.81-7.65-3.25-3.38-6.41-3.76-9.87-.26-5.94,6-12,11.9-18,17.84-3,3-3.08,6-.09,9,2.7,2.73,5.56,5.31,8.12,8.16,7.35,8.19,9.24,17.57,4.93,27.73s-11.95,15.71-23,16.24c-3.82.19-7.67.09-11.5.12-4.43,0-6.78,2.13-6.76,6.69q0,12.65,0,25.31c0,4.25,2.2,6.39,6.35,6.5,3.84.11,7.68,0,11.51.1,11.09.38,18.94,5.88,23.29,15.89,4.48,10.3,2.67,19.89-4.89,28.25-2.44,2.7-5.11,5.2-7.72,7.73-3.25,3.15-3.32,6.23-.08,9.43,6,5.92,12,11.84,18,17.83,3.24,3.25,6.29,3.11,9.44-.09,2.55-2.6,5.1-5.21,7.79-7.67,8.36-7.65,18.05-9.18,28.29-4.93S663.37,482,663.68,493.4c.09,3.45.06,6.91,0,10.36,0,4.4,1.91,6.87,6.53,6.86,8.63,0,17.27,0,25.9,0,4.28,0,6.32-2.26,6.37-6.42.05-3.65,0-7.3.07-10.94.35-11.09,5.79-19,15.83-23.29s19.52-3.09,27.93,4.1a113.32,113.32,0,0,1,8.25,8c3.26,3.4,6.4,3.8,9.86.3,5.95-6,12-11.9,18-17.85,3.26-3.23,3-6.33-.26-9.43-2.76-2.66-5.54-5.33-8.08-8.2-7.16-8.1-8.78-17.35-4.61-27.27s11.93-15.71,23-16.25c3.45-.17,6.91,0,10.36-.09,6.25-.14,7.84-1.71,7.94-7.83C810.84,391.61,810.8,387.77,810.79,383.94Z" transform="translate(-425.31 -131.51)"/><path d="M741,578.19a165.74,165.74,0,0,0,55.3-23.91c52.25-34.64,84.3-82.55,94.29-144.77.8-5,1.47-10,7-12.28,7.65-3.15,15.4,3.09,14.22,11.63-6,43.61-23.06,82.42-51.36,116.12Q814,580.26,744.39,599.83c-1.27.36-2.52.76-5,1.52l13.48,11.3c2.21,1.85,4.49,3.61,6.59,5.58,4.65,4.35,5.25,9.92,1.69,14.36s-10,5.28-14.89,1.4c-6.77-5.34-13.32-11-20-16.48-5.89-4.9-11.83-9.76-17.66-14.74-6.09-5.2-6.69-10.44-1.68-16.45q15.09-18.12,30.44-36c4.52-5.27,10.61-6,15.24-2.31,4.92,4,5.13,9.9.47,15.73-2,2.55-4.21,5-6.3,7.48C744.85,573.51,742.93,575.86,741,578.19Z" transform="translate(-425.31 -131.51)"/><path d="M886.92,330.34c-5.82-24.08-15-45.43-28.18-64.93Q809.93,193,724.26,175.48c-1.32-.26-2.62-.57-3.93-.89-6.49-1.57-9.92-6.21-8.86-12,1.1-6,6.28-9.32,12.95-8.15a222,222,0,0,1,76.17,28Q882,231.16,906.52,322.85c.34,1.26.86,2.46,1.55,4.4,4.64-8,8.92-15.49,13.26-22.9,2.33-4,6-6.76,10.43-5.33a16.12,16.12,0,0,1,8.31,6.72c1.2,2.07.53,6.19-.79,8.58-7.94,14.44-16.21,28.7-24.57,42.9-3.65,6.2-8.8,7.51-15.23,3.95q-20.87-11.55-41.55-23.46c-6-3.44-7.78-9.36-4.77-14.57s9-6.61,15.05-3.33C874.1,323,879.88,326.37,886.92,330.34Z" transform="translate(-425.31 -131.51)"/><path d="M458.26,430.26c-4.69,6.36-8.84,12.08-13.08,17.73-4.64,6.18-10.67,7.55-15.81,3.68s-5.45-9.61-1-15.74q13.85-19.06,27.9-38c4.73-6.38,10-7.31,16.36-2.78q19.46,13.8,38.67,28c5.4,4,6.43,9.72,3.09,14.56s-9.74,5.85-15.26,2c-6.43-4.44-12.71-9.1-20.55-14.75,1.52,5.63,2.42,9.66,3.7,13.56,24.77,75.34,75.79,122.83,152.25,143.26.93.25,1.9.33,2.82.59,6.57,1.87,10.09,7.13,8.57,12.78-1.56,5.8-7,8.92-13.64,7.23-8.53-2.15-17.14-4.24-25.36-7.31C530.45,566.46,481,513,459.54,434.05,459.29,433.13,458.93,432.25,458.26,430.26Z" transform="translate(-425.31 -131.51)"/><path d="M615.76,160.4c-9-3.27-16.86-5.92-24.57-9-7.47-3-9.33-11.45-4-16.81,3.39-3.39,7.52-3.7,11.75-2.2,15.33,5.43,30.66,10.9,45.92,16.55,7,2.59,9.32,7.61,6.82,14.66q-7.87,22.18-16.14,44.24c-2.44,6.57-7.83,9.32-13.51,7.29-6-2.15-8.31-7.58-5.9-14.54,2.24-6.51,4.64-13,7.55-21.06C614,183.28,605.08,186,596.79,190,529.89,222.08,489.33,274.44,476,347.62c-1.66,9.15-9.27,13.33-16.16,8.78-4.44-2.93-5.28-7.24-4.34-12.15,17.16-89.71,68.91-150,154.45-181.58C611.52,162.1,613,161.47,615.76,160.4Z" transform="translate(-425.31 -131.51)"/><path d="M625.44,383.91c0-31.55,25.9-57.27,57.63-57.3a57.62,57.62,0,0,1,57.74,57.77c-.16,31.51-26.23,57.18-57.93,57A57.66,57.66,0,0,1,625.44,383.91Zm94.6-.12a36.92,36.92,0,1,0-36.85,37A36.87,36.87,0,0,0,720,383.79Z" transform="translate(-425.31 -131.51)"/></svg>