<svg id="Capa_1" data-name="Capa 1" xmlns="http://www.w3.org/2000/svg" viewBox="0 0 356.91 465.79"><path d="M841,596.66V219.5H817.26v7.13q0,141.15.1,282.31a21.26,21.26,0,0,1-7.08,16.69c-12.95,12.33-25.63,25-38.22,37.64a18.47,18.47,0,0,1-14,5.86q-97-.11-194-.06c-11,0-15.31-4.48-15.31-15.6q0-149.55,0-299.1a23.25,23.25,0,0,1,.8-6.93c1.33-4.23,4.54-6.43,9-6.56,4.65-.14,8.15,2,9.57,6.43a26.3,26.3,0,0,1,.87,8q.06,143.06,0,286.11v7.28H752V528.06c0-22.32,1-23.3,23.06-23.33h21.5V219.21c-4.24,0-8.67,0-13.11,0-7.28-.1-11.66-3.88-11.65-9.95s4.25-9.77,11.72-9.79q30.06-.11,60.13,0c12.78,0,17.75,4.95,17.77,17.68q0,51.47,0,103,0,138.45,0,276.89a56.76,56.76,0,0,1-.27,7c-.89,7.1-5.59,11.81-12.68,12.72a52,52,0,0,1-6.49.17H523.86c-14.51,0-19.3-4.7-19.3-19V218.6c0-1.63-.05-3.26.06-4.88.64-8.75,5.87-14.12,14.6-14.2,20.95-.17,41.91-.13,62.87,0,6.39,0,10.7,4.3,10.64,9.86s-4.43,9.76-10.81,9.8c-18.77.11-37.56,0-56.76,0V596.66Zm-59.57-71.49h-9v9.76Z" transform="translate(-504.55 -151.1)"/><path d="M682.9,240.27c-17.68,0-35.37,0-53.06,0-11.75,0-16.44-4.73-16.48-16.36,0-10.29-.09-20.58,0-30.86.11-9.45,5.35-14.62,14.79-14.87a13.1,13.1,0,0,1,2.17,0c9.92,1.27,17-.3,22.45-11.06,6.3-12.38,19.34-17,33.28-15.84,14.63,1.22,25.44,8.83,31.35,22.38,1.6,3.66,3.39,4.8,7.09,4.57,4.49-.28,9-.15,13.53,0,9.16.22,14.45,5.4,14.57,14.51.14,10.82.11,21.65,0,32.48-.08,9.94-5,15-15,15C719.36,240.37,701.13,240.27,682.9,240.27Zm49.56-41.56a7.46,7.46,0,0,0-1.53-.55c-5.24-.07-10.47-.11-15.71-.15-10.12-.09-13.18-2.64-14.93-12.46a17.54,17.54,0,0,0-34.5-.44C663.63,195.82,661,198,650.15,198c-5.52,0-11,0-16.55,0V220.1h98.86Z" transform="translate(-504.55 -151.1)"/><path d="M725.24,464.76c-12.26,0-24.52,0-36.78,0a30.7,30.7,0,0,1-5.92-.4c-4.87-1-7.61-4.28-7.86-9.05s2.24-8.3,7-9.72a20.56,20.56,0,0,1,5.86-.71q37.59-.06,75.19,0a27,27,0,0,1,2.7.06c6.13.58,10,4.46,10,10s-3.83,9.64-10.07,9.75c-13.34.23-26.69.07-40,.07Z" transform="translate(-504.55 -151.1)"/><path d="M724.72,388c-12.62,0-25.24.05-37.86,0-7.52,0-12.32-4-12.3-10s4.79-9.9,12.38-9.92c25.42-.06,50.85,0,76.27,0,5.26,0,9.76,1.39,11.67,6.84,2.41,6.83-2.53,13-10.67,13.08C751.05,388.13,737.89,388,724.72,388Z" transform="translate(-504.55 -151.1)"/><path d="M724.59,311.25c-12.81,0-25.61.07-38.41,0-7-.06-11.72-4.3-11.61-10.13.09-5.32,4.24-9.46,10.34-9.62,9-.24,18-.11,27-.11,17.31,0,34.62-.06,51.93,0,6.77,0,10.68,3.11,11.36,8.41.85,6.59-3.61,11.33-11.17,11.4C750.91,311.34,737.75,311.25,724.59,311.25Z" transform="translate(-504.55 -151.1)"/><path d="M616.32,455.47c6.9-7.23,12.91-13.71,19.12-20,5.13-5.16,11.52-5.43,15.71-1s3.46,10-1.76,15.19Q637.14,461.91,624.77,474c-6.19,6.05-11,6-17.27-.11-4.39-4.27-8.8-8.53-13.09-12.9-4.73-4.82-5-10.76-.9-14.83s10.1-3.83,14.94.76C610.92,449.29,613.1,452,616.32,455.47Z" transform="translate(-504.55 -151.1)"/><path d="M616.11,302.39c7.21-7.66,13.13-14.2,19.34-20.47,5.23-5.3,11.39-5.55,15.66-1.06,4.1,4.31,3.53,10-1.66,15.2q-12.45,12.39-25,24.66c-5.58,5.43-10.87,5.4-16.52,0-4.55-4.36-9.06-8.77-13.48-13.27-4.75-4.83-5-10.71-.92-14.83s10-4,14.86.69C610.81,295.67,612.82,298.49,616.11,302.39Z" transform="translate(-504.55 -151.1)"/><path d="M615.8,379.51c7.27-7.73,13.09-14.13,19.14-20.3,5.52-5.63,11.68-6.12,16.07-1.64s3.63,10.14-1.85,15.58q-12.07,12-24.25,23.91c-6.22,6.07-11.14,6.11-17.28.18-4.53-4.39-9.08-8.76-13.47-13.29s-4.68-10.43-.78-14.44,10-4.18,14.48.16C610.57,372.27,612.64,375.53,615.8,379.51Z" transform="translate(-504.55 -151.1)"/></svg>