<svg id="Capa_1" data-name="Capa 1" xmlns="http://www.w3.org/2000/svg" viewBox="0 0 627.18 415.32"><path d="M869.16,226.59c-1.84-6.66-3.53-12.3-5-18-1.9-7.63,1.18-13.93,8.69-16.2q26.79-8.12,53.81-15.44c8.2-2.21,14.72,1.75,16.59,9.1s-2,13.54-10.26,16c-13.11,3.9-26.29,7.54-40.47,11.59,21.69,76.09,43.28,151.79,65,228.13,7.22-2,14-3.87,20.74-5.68,8.71-2.32,15.27.8,17.61,8.3s-1.63,13.77-10.34,16.44c-9.25,2.84-18.57,5.48-27.88,8.14-14.12,4-19,1.35-23-12.54q-27.86-97.76-55.53-195.57c-1.75-6.23-3.94-8.58-10.86-8.45-24.82.45-49.5-2.75-72-13.08-33.61-15.4-65.89-12.55-98.65,1.69-14.4,6.26-28.28,13.09-40.07,23.66-10.74,9.64-19.06,20.9-24.1,34.53-8.77,23.69-17.66,47.34-26.47,71a43.16,43.16,0,0,0-1.88,6.08c-1.87,8.68-4,18,3.5,24.7,8.18,7.4,18.63,7.69,28.8,4.68,11.5-3.4,18.14-12.25,23.09-22.6,4.39-9.15,8.43-18.5,13.29-27.4C694.25,318.21,739,308,773.16,333.32A562.11,562.11,0,0,1,878.34,434.24c2.36,2.95,4.69,5.91,7.11,8.95,2.44-1.38,4.63-2.8,7-3.89a12.6,12.6,0,0,1,16.25,4.41c3.45,5.15,3.22,13.87-2.26,16.52-11.29,5.48-14.68,15.35-19.32,25.73-7.29,16.29-21.66,23-39.82,22-3.65,20-16.16,31.73-35,36.76-6,1.61-13.64-.54-18.55,2.37-4.66,2.74-6.06,10.46-10.07,14.93-10.6,11.83-24.39,13.11-39.16,10.48-2.07-.37-5.47.13-6.51,1.52-14.11,19-36.85,21.47-58.31,13.1-2.41-.94-5-1.65-7.11-3.11-4.77-3.34-9-2.94-14.36-.7-16.81,7.11-42.31,3.82-54.86-24.66-11.25,4.8-22.92,6.92-34.86,2.62-12.17-4.39-19.92-13.16-24.07-26.07-11.46,1.8-22.63,1.53-32.22-6.11-9.39-7.48-13.19-17.56-13.53-29.74l-6.24-.44c-19.77-1.53-33.35-18.55-29.76-37.89.86-4.67-.31-7.17-3.88-10.11-6.9-5.68-13.14-12.15-20.41-19-2.68,9.16-5.2,17.84-7.75,26.51-3.34,11.35-8.68,14.29-20.2,11.05-10-2.82-20-5.62-30-8.62-8.57-2.58-12.67-9.21-10.46-16.43,2.28-7.45,9-10.64,17.64-8.33,6.77,1.8,13.53,3.69,20.78,5.68l65-228.08-33.54-9.74c-2.95-.85-6-1.53-8.81-2.63-6.8-2.62-10.16-8.8-8.48-15.14,1.85-7,7.72-11,15.17-9.43,8.06,1.71,15.94,4.3,23.9,6.53,9.32,2.62,18.64,5.22,27.94,7.91,11.49,3.31,14.68,9.08,11.36,20.73-17.08,59.95-34.07,119.93-51.49,179.78-1.95,6.72-1.65,11.58,3.36,16.46,7.79,7.57,15.08,15.66,23,23,1.6,1.48,5.84,1.92,7.85.88,18.35-9.49,46.84-3.72,51.09,27,16.7-1.42,29.91,4.54,37.77,19.82,28.45-6,39.63-2.16,53.95,18.7,19.76-9.53,39.14-10.16,54.65,7.6,14.68,16.81,13.2,35.94,4.07,55.1,9.75,7.19,22.11,7.3,29.39-.13-3.47-2.46-7-4.8-10.3-7.35-6.24-4.78-7.75-12.29-3.79-18.11,4.27-6.25,11.49-7.1,18.79-3.07,9.66,5.34,19.3,11,29.59,14.84,10.63,3.93,15.77.73,19.46-9.23-6.7-5.36-13.58-10.62-20.18-16.23a91.07,91.07,0,0,1-10-10.08c-5.54-6.44-5.23-13.86.48-18.9,5.39-4.76,12.59-4.16,18.45,1.29,6.4,5.94,12.56,12.26,19.59,17.37,5.24,3.8,11.5,6.49,17.66,8.67,7.72,2.73,15,.46,21.2-4.65,7.55-6.2,6.34-13.27-1.27-19.14-14.92-11.51-29.38-23.67-43.52-36.14a12.54,12.54,0,0,1-.48-18.9c5.47-5.29,12.52-4.78,19,.89,11.74,10.24,23.32,20.7,35.66,30.17,5.67,4.36,12.77,7.18,19.6,9.62,8,2.85,14.33.61,18.37-5,4.39-6.11,4.44-13.78-.94-20.37-10-12.26-19.58-25.11-31-36-22.73-21.67-46.52-42.25-70-63.14C738,336.08,706.67,345.32,694.93,371c-3.54,7.73-7.28,15.37-10.77,23.11-11.29,25.07-33.63,40.3-58,39.45-25.3-.88-44.21-14.14-47.18-35.79a77.67,77.67,0,0,1,3-33.38c8.65-26.71,19-52.9,29.13-79.09,6.1-15.67,16.4-28.63,28.94-39.8a14.17,14.17,0,0,0,4.56-6.26c-9.82,2.6-19.73,4.88-29.42,7.87-28.61,8.81-57.43,15.89-87.75,13.28-9.27-.79-14.38-4.87-15-12.09-.67-8.24,5.38-14.91,14-14,28,3,54.5-3.65,80.72-12,27.4-8.77,55.16-12.88,83.87-8.16,2.57.42,5.58-.43,8.11-1.4,34.67-13.32,68.88-13.75,103.37,1.44C823.27,223.23,845.46,226.77,869.16,226.59ZM627.22,542.32c-.39,12.19,7.71,19.72,19,17.65,13-2.39,22.85-19,18.76-31.66-3-9.18-10.89-13.21-20.07-10.19C635.07,521.35,627.56,531.63,627.22,542.32ZM591,501.8c-12.72-.22-24.13,13.52-21.39,25.94,1.32,6,5.23,9.26,11.39,9.69,12.73.89,24.63-12.11,22.7-24.79C602.66,506.12,597.75,501.92,591,501.8Zm-50.35-17c-7.83,0-15.66,8.18-15.63,16.27,0,5.73,3.68,9.37,9.25,9.18,7.49-.26,15.14-8.18,15.35-15.89C549.72,488.77,546,484.82,540.6,484.84ZM492.74,473c8.65,0,15.67-6.42,15.71-12.29,0-4.69-2.8-6.76-7.11-6.91-6.29-.22-13.74,6.32-13,12.21C488.69,468.92,491.68,471.47,492.74,473Z" transform="translate(-369.41 -176.34)"/></svg>