<svg id="Capa_1" data-name="Capa 1" xmlns="http://www.w3.org/2000/svg" viewBox="0 0 428.9 364.57"><path d="M675.38,446.7c0,32.49-.33,65,.16,97.49.2,13.81-8.24,22.61-22.25,22.07-17.9-.69-35.85-.13-53.77-.18-12.55,0-20-7.45-20-20q0-99.25,0-198.5c0-12.8,7.48-20.13,20.38-20.15q27.63,0,55.28,0c13,0,20.17,7.14,20.2,20.24C675.43,380.69,675.38,413.7,675.38,446.7ZM598.27,346V547.44h58.4V346Z" transform="translate(-468.55 -201.71)"/><path d="M801.67,446.2q0-49,0-98c0-13.65,7.1-20.74,20.71-20.75q27.64,0,55.28,0c12.33,0,19.75,7.3,19.76,19.63q.06,99.75,0,199.51c0,12.09-7.39,19.43-19.4,19.48q-28.39.09-56.79,0c-12.2-.05-19.54-7.52-19.55-19.88Q801.64,496.21,801.67,446.2Zm77.17,101.36V346H820.28V547.56Z" transform="translate(-468.55 -201.71)"/><path d="M860.18,224.54c-4.59.6-8.52,1.25-12.48,1.6-5.9.52-10.2-2.8-10.73-8.06-.5-4.93,2.93-9.18,8.46-10.08,13.05-2.11,26.12-4.18,39.2-6.07,9.16-1.33,13.67,3.52,12.2,12.58-2,12.06-3.79,24.15-5.7,36.22a28.59,28.59,0,0,1-.71,3.43c-1.47,5.13-5.67,7.85-10.62,6.93a9.2,9.2,0,0,1-7.29-10.44c.48-4,1.17-7.87,1.94-12.89-1.91,1.67-3.05,2.55-4.06,3.56q-48,48-96,95.92c-2.33,2.31-2.93,4-1.61,7.28a37,37,0,1,1-40-22.73,35.06,35.06,0,0,1,22.44,3.59c2.12,1.12,3.62,1.57,5.66-.48q49.11-49.36,98.37-98.56A11.38,11.38,0,0,0,860.18,224.54ZM738.61,377.06a18.68,18.68,0,0,0,18.68-18.44,19,19,0,0,0-18.83-18.93,18.65,18.65,0,0,0-18.54,19.07A18.39,18.39,0,0,0,738.61,377.06Z" transform="translate(-468.55 -201.71)"/><path d="M468.56,491.51c0-18.09,0-36.18,0-54.27,0-12.9,7.35-20.15,20.32-20.18q27.63-.07,55.27,0c12.78,0,20.15,7.51,20.16,20.4q0,54.29,0,108.55c0,12.65-7.33,20-19.88,20.07q-28.14.07-56.28,0c-12.33,0-19.55-7.33-19.59-19.79C468.52,528,468.56,509.77,468.56,491.51Zm77.25-55.75H487.15V547.38h58.66Z" transform="translate(-468.55 -201.71)"/><path d="M690.63,502.44c0-14.24,0-28.49,0-42.73.06-13.4,7.19-20.54,20.46-20.56q27.64,0,55.3,0c12.5,0,20.09,7.52,20.11,20q.07,43.49,0,87c0,12.54-7.49,20-20,20q-28.15.07-56.3,0c-12.07-.05-19.4-7.26-19.51-19.4C690.52,531.93,690.63,517.18,690.63,502.44Zm77.17,45.15V457.8H709.34v89.79Z" transform="translate(-468.55 -201.71)"/><path d="M651.94,279.21c-16.51,11.82-32.46,11.77-48.75.16l-27.66,27.71c-3.67,3.67-7.28,7.41-11,11-4.57,4.37-10,4.52-13.76.53-3.64-3.8-3.49-9.11.77-13.41q18.72-18.94,37.67-37.65c2.32-2.3,3.32-4.18,2.42-7.75a36.53,36.53,0,0,1,15.15-39.56A37,37,0,0,1,663.36,260c-.77,3.11,0,4.91,2.09,7,12.51,12.36,24.9,24.84,37.36,37.25,3.05,3,5,6.33,3.41,10.77-2.28,6.58-10.07,8.28-15.45,3.07-8.78-8.5-17.34-17.24-26-25.89C660.54,287.92,656.32,283.63,651.94,279.21ZM646.09,251a18.72,18.72,0,0,0-18.87-18.78A19,19,0,0,0,608.7,251a18.8,18.8,0,0,0,19,18.69A18.56,18.56,0,0,0,646.09,251Z" transform="translate(-468.55 -201.71)"/><path d="M553.43,358.2a37.12,37.12,0,0,1-36.77,37.41c-20.29.21-37.12-16.45-37.31-36.92a37,37,0,0,1,74.08-.49Zm-37.17,18.86a18.56,18.56,0,0,0,18.87-18.7,18.9,18.9,0,0,0-18.55-18.67,18.65,18.65,0,0,0-18.78,18.83A18.39,18.39,0,0,0,516.26,377.06Z" transform="translate(-468.55 -201.71)"/></svg>