<svg id="Capa_1" data-name="Capa 1" xmlns="http://www.w3.org/2000/svg" viewBox="0 0 485.55 471.51"><path d="M497,520.36v-8.85q0-146.29,0-292.59c0-26.77,10.52-47.65,33.67-61.61,10.8-6.52,22.74-9.06,35.3-9q35.76.06,71.54,0l234,0c31.44,0,54.08,22.38,54.3,53.72.07,10.75.09,21.5,0,32.25-.08,8.53-4.1,12.51-12.66,12.57q-18.76.12-37.53,0c-7.76,0-12.52-4.39-12.36-11,.16-6.39,4.69-10.27,12.33-10.34,9.33-.09,18.67,0,29.25,0-.55-11.49.15-22.56-1.88-33.11-3-15.38-17.48-23.8-34.51-21.88-12.92,1.45-24.39,14-24.75,27.91-.42,16-.17,32-.18,48.06q0,151.57,0,303.15c0,31.17-16.65,56.27-44.23,65.9a69.61,69.61,0,0,1-22.32,4q-141.92.4-283.82.13c-30.08,0-52.4-22.74-52.72-52.84-.12-11.14-.08-22.28,0-33.42.06-8.88,4-12.94,12.9-13C467.44,520.28,481.69,520.36,497,520.36Zm21.58,0H718.86c10.88,0,14.46,3.6,14.49,14.38,0,11.14-.11,22.29.06,33.42.17,11.5,5.25,20.68,15.43,25.77,5.34,2.68,11.87,3.47,18,4.06,11.85,1.14,23.52,0,33.82-6.77,15-9.88,21.25-24,21.22-41.85-.16-112.59,0-225.17-.18-337.76,0-14.28.92-28.1,8.81-40.55.1-.17-.27-.65-.57-1.32h-6.26c-85.23,0-170.47.38-255.7-.2-30-.21-49.86,22.12-49.67,49.38.67,98.12.27,196.24.26,294.37Zm-56.8,22c0,8.12-.1,15.89,0,23.66.29,19.63,12.89,32.24,32.48,32.25q110.46.09,220.94,0c1.78,0,3.56-.18,6.69-.35-13.57-17.45-8.9-36.92-10.3-55.58Z" transform="translate(-440.22 -148.25)"/><path d="M582.41,323.17v37.11c14.05-10.87,27.94-12.1,42.81.62,0-7.74,0-13.25,0-18.77.07-8.49,3.93-13.26,10.64-13.25s10.69,4.88,10.72,13.25c0,10.75.07,21.5,0,32.25s-7.38,15.38-17.3,10.83c-7.27-3.34-14.37-7.08-21.74-10.15a10.75,10.75,0,0,0-7.5,0c-7,2.89-13.8,6.41-20.69,9.64C568,390,561,385.7,561,373.26c0-19.35.14-38.7-.16-58.05a14.23,14.23,0,0,0-3.38-8.62,63.42,63.42,0,0,1-8.83-73.54c12.95-23.44,40-36.48,65.85-31.74a63.59,63.59,0,0,1,51.94,54.18c5.9,43.57-35.12,80.12-77.78,69.3C586.73,324.32,584.86,323.81,582.41,323.17ZM604,222a41.63,41.63,0,0,0-.74,83.26c22.92.27,42.07-18.48,42.19-41.31A41.57,41.57,0,0,0,604,222Z" transform="translate(-440.22 -148.25)"/><path d="M668.93,438.46q-49.24,0-98.48,0c-8.28,0-12.55-3.18-13.18-9.43a10.48,10.48,0,0,1,8.94-11.79,33.39,33.39,0,0,1,5.84-.23h194c.78,0,1.56,0,2.35,0,7.72.18,12.54,4.44,12.42,11-.12,6.34-4.66,10.42-12.27,10.43Q718.75,438.54,668.93,438.46Z" transform="translate(-440.22 -148.25)"/><path d="M668.92,470.29q48.08,0,96.14,0a43.1,43.1,0,0,1,7,.32c5,.81,8,3.95,8.61,9,.64,5.26-1.57,9.2-6.54,11.15a17.58,17.58,0,0,1-6.3,1q-98.76.07-197.54,0a20.14,20.14,0,0,1-5.21-.53,10.26,10.26,0,0,1-7.87-10.9,10,10,0,0,1,9.14-9.77,49.11,49.11,0,0,1,6.43-.24Q620.85,470.27,668.92,470.29Z" transform="translate(-440.22 -148.25)"/><path d="M724.64,387.3c-14.26,0-28.52.1-42.78,0-7.94-.08-12.62-4.91-12-11.87.52-5.91,4.72-9.5,11.87-9.59,12.89-.15,25.78-.05,38.68-.05,16,0,32-.06,48.05,0,6.86,0,10.78,2.82,12,8,1.81,7.46-3.26,13.36-11.91,13.43C753.94,387.4,739.29,387.3,724.64,387.3Z" transform="translate(-440.22 -148.25)"/><path d="M736.39,261.81c10.74,0,21.48-.06,32.22,0,7.6.05,12.12,4,12.24,10.38.12,6.6-4.64,10.89-12.4,10.91q-32.52.08-65,0c-7.47,0-12.1-4.11-12.23-10.49-.14-6.64,4.49-10.75,12.4-10.8C714.52,261.75,725.46,261.81,736.39,261.81Z" transform="translate(-440.22 -148.25)"/><path d="M736.14,335.12c-10.74,0-21.48.08-32.22,0-8.11-.08-12.68-4-12.74-10.54-.06-6.76,4.77-10.86,13.08-10.88q31.92-.06,63.85,0c7.88,0,12.66,4.1,12.73,10.62s-4.51,10.7-12.48,10.78C757.62,335.21,746.88,335.12,736.14,335.12Z" transform="translate(-440.22 -148.25)"/></svg>