<svg id="Capa_1" data-name="Capa 1" xmlns="http://www.w3.org/2000/svg" viewBox="0 0 670.97 528.19"><path d="M683,648.07q-129.51,0-259,0c-46,0-76.43-30.49-76.44-76.53q0-187.48,0-375c0-46.11,30.39-76.55,76.39-76.57,59.14,0,118.29.13,177.43-.08,21.22-.07,39.54,6.39,55,21.12,2.14,2,6.2,2.84,9.37,2.84q139.25.22,278.5.11c25.16,0,45.5,9.73,60.53,30a67,67,0,0,1,13.54,40.54c.11,121,.29,242-.07,363-.12,39.8-32.5,70.45-73.25,70.51Q814,648.23,683,648.07Zm-.2-48h259c19.88,0,28.69-8.86,28.69-28.87V292.94c0-20-8.85-28.93-28.61-28.94q-113.43,0-226.86,0c-31.14,0-53.79-14.21-67.89-42C641,209.72,634.7,197.49,628.93,185c-5.59-12.07-14.5-17.25-27.84-17.19-58.9.31-117.79.13-176.69.14-20.36,0-28.95,8.7-28.95,29.3q0,186.75,0,373.51c0,20.43,8.76,29.26,29,29.26ZM970,218.16C972,203.62,961.42,192,944.48,192q-126.08-.07-252.14,0c-1.82,0-3.65.27-5.65.43,7.13,19.17,13.39,23.55,32.94,23.55,70.57,0,141.15-.1,211.73.1C944.22,216.13,957.07,217.43,970,218.16Z" transform="translate(-347.52 -119.9)"/></svg>