<svg xmlns="http://www.w3.org/2000/svg" viewBox="0 0 666.04 665.91"><g id="Capa_2" data-name="Capa 2"><g id="Capa_1-2" data-name="Capa 1"><path d="M666,380.31c-2.73,17.65-13.43,31-23.75,44.68q-39.56,52.38-78.79,105-43.72,58.46-116.67,58.41-108.91,0-217.83,0h-8.06c-.35,16.52-4.93,31-16.58,42.27A86.58,86.58,0,0,1,186,643.87c-12.52,6.86-25.47,12.94-38.28,19.26-13.13,6.46-23.17,3.28-29.67-9.68q-57.6-114.91-115-229.91C-3.23,411,.27,400.76,12.83,394.36q20-10.16,40.06-20c16.67-8.24,33.69-9.19,50.77-1.52,3.6,1.62,5.45.31,7.93-1.77,16.71-14.1,32.54-29.5,50.5-41.8C208.56,297.41,274.8,300.91,319,336,342,354.29,342,354.29,371.73,354.29c24.71,0,49.42.17,74.12,0,28.82-.25,49.49,11.83,60.57,39,.15.38.53.66,2.29,2.71,1.4-2.21,2.37-4.42,3.92-6.1,16.77-18.14,33.47-36.35,50.51-54.24,22.73-23.88,53.51-27,79.75-8.07,11.33,8.16,18.28,19.43,21.55,33,.45,1.85,1.07,3.66,1.6,5.49ZM133.58,401.88c1.71,3.56,2.71,5.7,3.76,7.81C159.5,454,181.76,498.31,203.7,542.75c2.43,4.91,4.92,6.82,10.61,6.8q116.08-.34,232.17-.09c36,.09,64.51-14,85.87-42.93,14.14-19.18,28.57-38.15,42.87-57.22,15.61-20.8,31.31-41.52,46.78-62.42,9.58-12.95,4.17-29-10.71-32.14-8.62-1.85-14.92,2.22-20.57,8.32q-40.22,43.4-80.62,86.63c-8.57,9.21-18.35,16.6-30.87,19.37a79.86,79.86,0,0,1-16.67,2.18c-36.21.2-72.41.13-108.61.09-10.77,0-18.49-5.32-20.89-14.11-3.62-13.24,5.72-24.82,20.37-24.86q47.79-.17,95.6,0c6.37,0,12.1-1.45,16.45-6.26,5.39-6,7-13,3.89-20.49-3.45-8.22-10-12.27-18.92-12.28-29.69,0-59.42-.84-89.08.24-22.55.82-41.83-5.09-58.3-20.42-2.06-1.91-4.41-3.5-6.6-5.26-30.44-24.41-73.25-29.59-106.57-9.53C169.7,370.53,152.24,387.24,133.58,401.88Zm11.71,218.84C153.07,616.86,160,613.43,167,610c15.26-7.67,18.35-17,10.7-32.29q-21.45-43-42.93-85.89c-12.09-24.18-24.11-48.4-36.28-72.54-5.26-10.43-14.2-15.16-23.88-11.48s-19,8.91-29,13.69Z" transform="translate(0 -0.46)"/><path d="M362.93.5c7.59,2.36,15.55,3.92,22.71,7.22a78.92,78.92,0,0,1,27.93,122.15c-.93,1.15-1.8,2.35-2.91,3.8,4.87,3.38,9.68,6.29,14,9.78,31.12,24.94,46.09,57.61,46.2,97.3,0,4.77.05,9.54,0,14.3-.19,13.13-8,21.1-21.07,21.16-23.19.12-46.39,0-69.58,0q-60.8,0-121.59,0c-15.74,0-23.06-7.37-23.22-23-.19-18.9.43-37.62,7.19-55.67,9.44-25.21,25.31-45.11,47.89-59.7,1.64-1.06,3.25-2.15,4.85-3.27a6.27,6.27,0,0,0,.94-1.18c-11-12.06-18.38-25.92-20.86-42.34C269.21,50,298.67,9,339.82,1.84c1.66-.29,3.27-.89,4.9-1.34ZM274.79,236.79H431.54c1.52-42-35.12-78.91-77.77-78.88S273.4,195.45,274.79,236.79Zm118-156.91c.05-21.39-17.8-40-38.63-40.31-21.15-.29-40.42,18.69-40.62,40-.2,21,18.6,39.24,40.35,39.21A39.32,39.32,0,0,0,392.8,79.88Z" transform="translate(0 -0.46)"/><path d="M362.93.5c6.9,2.13,14,3.57,20.73,6.31a81.56,81.56,0,0,1,18.59,11c23,18,34.22,49.15,28.08,77.64a79.85,79.85,0,0,1-16.15,34.06l-3.29,4.3-.06-.42c4.67,3.24,9.57,6.21,14.05,9.78,29.21,23.2,45.3,55.44,46.26,92.74.18,3.06.11,9.79.13,12.84v6.42A26,26,0,0,1,469,265.75,18.68,18.68,0,0,1,455.64,276c-4.83,1.05-12.17.52-17.15.65-49.56.08-121.46.11-171,0-4.84-.12-12.37.35-17.14-.88-13.83-3-15.77-15.23-15.34-27.46-.25-23.58,2.69-45.34,14.23-66.28a118.51,118.51,0,0,1,40.13-43.77l3.54-2.38,1.77-1.2.44-.29a1,1,0,0,0,.32-.31c.2-.25.4-.57.63-.86l0,.39c-9.85-10.73-17.27-23.89-20.13-38.25-9.23-41.81,21.39-86.52,63.51-93.54a48.72,48.72,0,0,0,5.27-1.4l18.21,0Zm0,0-18.2,0c-3.44,1.2-7.07,1.67-10.58,2.6a70.58,70.58,0,0,0-10.31,3.47c-26.9,11.18-46.35,38.07-48.69,67.07-2,21.82,6.48,43.71,21.37,59.56l.18.19c-.44.46-.69,1.13-1.24,1.5l-.45.3-1.77,1.2c-13.17,8.39-25.19,18.83-34.38,31.52a125,125,0,0,0-16,30c-6,16.07-7.14,33.38-7.08,50.4-.36,11.72,1.27,23.72,14.73,26.62,5.49,1.23,11.25.72,16.94.83,49.56-.06,121.46,0,171,0,4.77-.18,12.31.46,17-.61a17.82,17.82,0,0,0,12.8-9.78,25,25,0,0,0,2.21-10.2c0-1.18,0-5.13,0-6.41,0-3,.05-9.92-.11-12.81-.91-37.11-16.86-69.19-45.88-92.29-4.51-3.62-9.49-6.63-14.25-9.95l.18-.24,3.3-4.31a79.34,79.34,0,0,0,16.09-33.8C436,67.06,424.94,36,402.14,18A81.12,81.12,0,0,0,383.62,6.9c-6.68-2.77-13.8-4.24-20.69-6.4Z" transform="translate(0 -0.46)"/><path d="M274.79,236.79c39.07-.18,117.69-.37,156.75-.43l-.42.41a71.36,71.36,0,0,0-5.56-29.91c-16.25-39-62.71-59.88-101.92-42.24-28.1,12.08-49.8,40.94-48.85,72.17Zm0,0c-1.27-31.37,20.34-60.56,48.59-72.75,39.46-17.94,86.79,3,103.05,42.45A71.91,71.91,0,0,1,432,237.21c-39.28-.06-117.9-.25-157.16-.42Z" transform="translate(0 -0.46)"/><path d="M392.8,79.88c.23-20.81-17.91-40.25-39-40-20.67,0-39.29,18.58-39.75,39.14-.75,20.9,18.27,39.17,38.85,39.54,21.29.84,40-17.35,39.86-38.64Zm0,0c.24,21.3-18.58,39.76-39.88,39.14-15.68-.17-30.71-10.34-36.84-24.79-6.62-14.6-1.66-32.33,9.68-43.11C336.81,40,354.58,35.8,368.92,42.78c14.13,6.5,24,21.49,23.88,37.1Z" transform="translate(0 -0.46)"/></g></g></svg>