<svg id="Capa_1" data-name="Capa 1" xmlns="http://www.w3.org/2000/svg" viewBox="0 0 675.63 675.5"><path d="M482.09,722.05c-7.74-3.62-12.09-10-15.82-17.52q-56.19-113-112.76-225.78c-8.53-17.07-5.56-25.89,11.61-34.48,11.79-5.89,23.63-11.67,35.35-17.7,17.66-9.09,35.53-10.38,54-2.61,1.88.79,5.44-.26,7.2-1.69,17.19-14,33.16-29.8,51.38-42.28,47.27-32.37,114.39-28.91,159.2,6.64,23.54,18.67,23.54,18.67,53.51,18.67,25.3,0,50.6.11,75.89,0,29-.15,49.72,12.2,60.85,39.48.15.37.59.61,2.6,2.67,1.22-2,2.13-4.3,3.69-6,17-18.42,34-36.9,51.25-55.06,23.08-24.25,54.3-27.39,80.93-8.23,11.5,8.28,18.56,19.71,21.88,33.47.45,1.88,1.08,3.71,1.62,5.57V431.7c-2.63,13.88-9.22,25.72-17.72,36.92q-43.26,57-85.89,114.42-44.7,60-119.39,59.84-110.14-.11-220.3,0h-7.71a15,15,0,0,0-.63,2.43c-1.24,26.35-14.57,44.27-38.08,55.46-14.21,6.77-28.11,14.18-42.15,21.3Zm2.85-267.62c.64,1.62,1,2.67,1.46,3.65Q521.59,528.51,556.69,599c2,4,4.61,4.35,8.32,4.35q96-.11,192-.05c17.16,0,34.32.38,51.46-.15,29.65-.93,55-12.17,73.7-35.34s36.24-47.54,54.23-71.42c14.68-19.49,29.45-38.93,43.87-58.61,9.35-12.76,3.48-28.92-11.37-32-8.44-1.76-14.8,2-20.39,8.06-27.36,29.51-54.89,58.86-82.22,88.4-12.21,13.2-26.89,21.49-45,21.68-38.7.39-77.41.25-116.12.08a19.16,19.16,0,0,1-18.61-15c-3.06-13.08,6.11-24.41,20.25-24.47,32.55-.15,65.1-.1,97.64,0,8.91,0,15.92-3.11,20-11.3,6.62-13.35-3.06-28.15-18.73-28.27-27.27-.19-54.63-1.45-81.78.32-29.41,1.92-52.82-7.58-75.25-26.25-29.14-24.25-63.21-27.95-98.61-14.15C523.65,415.17,506.56,437.84,484.94,454.43Zm-89.82,19C429,541.15,462.47,608.15,496.21,675.62c7.33-3.64,14-6.93,20.62-10.24,17.28-8.63,20.24-17.33,11.72-34.4l-39.12-78.33Q469.14,512,448.8,471.39c-5.46-10.85-14.75-15.66-24.75-11.76C414.33,463.43,405.15,468.6,395.12,473.47Z" transform="translate(-348.9 -46.55)"/><path d="M649.42,181.75C613.48,141.82,626,92.25,654.9,66.68c29.92-26.43,74.22-27,104.28-.84,28.06,24.4,42,73.94,6.5,115.58,5.46,4,11.14,7.63,16.31,11.91,29.38,24.37,43.66,56,44.52,93.9.14,5.71.08,11.43,0,17.15-.16,13.7-8.07,21.69-21.82,21.71q-70.28.09-140.54,0c-18,0-36.07.05-54.11,0-14.57-.05-22.22-7.85-22.39-22.48-.23-19.39.29-38.64,7.22-57.18,9.57-25.57,25.62-45.81,48.54-60.63C645.45,184.5,647.41,183.12,649.42,181.75ZM787.09,286.23c-1.61-30.52-14.08-54.37-40.32-69.45-27.85-16-56.15-14.65-82.83,2.9-23.47,15.44-35.56,37.89-36.7,66.55ZM707.85,166.37a39.89,39.89,0,0,0,39.47-39.51c0-22-18.59-41.09-39.85-40.89s-40.35,19.23-40.55,40.62S685.79,166.4,707.85,166.37Z" transform="translate(-348.9 -46.55)"/></svg>