<svg id="Capa_1" data-name="Capa 1" xmlns="http://www.w3.org/2000/svg" viewBox="0 0 584.13 584.1"><path d="M975.07,676.05H929.69c-1.82-77.69-31.94-141.82-91.63-191C789.92,445.28,733.81,427.38,671.52,430a237.63,237.63,0,0,0-117.84,36.52,247.84,247.84,0,0,0-85.8,89.66c-20.82,37-30.88,76.9-31.36,119.58H390.93c.66-62,18.05-118.42,54-168.76S528.26,421.23,587,400c-1.68-1.43-2.72-2.43-3.87-3.28-56.88-42.41-82-112.08-62.54-180.57,17.92-63,60.23-102.67,123.58-119.48,8.93-2.37,18.27-3.21,27.41-4.76h22.82c9.15,1.55,18.49,2.39,27.42,4.76C785.2,113.52,828,153.06,845.28,216.24c18.07,66.08-.31,123.37-50.07,170.44-4.88,4.63-10.38,8.61-16,13.21,1.68.76,2.82,1.37,4,1.81a286.32,286.32,0,0,1,104.17,65.9c44.33,43.72,72.32,96.19,83.09,157.62,2,11.17,3.06,22.48,4.57,33.72ZM683,137.6c-67.65,0-122.93,55.2-123.17,122.93S615.21,384,683,384c67.64,0,122.93-55.2,123.16-122.93S750.82,137.58,683,137.6Z" transform="translate(-390.93 -91.95)"/></svg>