<svg xmlns="http://www.w3.org/2000/svg" viewBox="0 0 268 268"><defs><style>.cls-1{fill:none;stroke:#000;stroke-miterlimit:10;stroke-width:5px;}</style></defs><g id="Capa_2" data-name="Capa 2"><g id="Capa_1-2" data-name="Capa 1"><path d="M103.83,189.8a7.54,7.54,0,0,1-3.52-.86,3.89,3.89,0,0,1-2.09-2.6L68,88.71a3.07,3.07,0,0,1-.15-1,3,3,0,0,1,.87-2.08,5.47,5.47,0,0,1,2.16-1.44,7,7,0,0,1,2.59-.51,4.49,4.49,0,0,1,2.3.58,3.16,3.16,0,0,1,1.44,1.87l26.64,88.42,26.5-88.42a2.68,2.68,0,0,1,1.29-1.87,4.53,4.53,0,0,1,2.31-.58,6.24,6.24,0,0,1,2.59.58,7.79,7.79,0,0,1,2.23,1.44,2.78,2.78,0,0,1,.94,2.16,1.59,1.59,0,0,1-.07.36,3.85,3.85,0,0,1-.22.5l-29.81,97.63a4.41,4.41,0,0,1-2.23,2.6A7.58,7.58,0,0,1,103.83,189.8Z"/><path d="M185.05,188.94a6.1,6.1,0,0,1-3.24-.94,3.08,3.08,0,0,1-1.51-2.81v-21H143.72a3.55,3.55,0,0,1-2.73-1.08,3.92,3.92,0,0,1-1-2.81,5.24,5.24,0,0,1,.14-1.3,6.23,6.23,0,0,1,.43-1.15L176.7,86.69a4.45,4.45,0,0,1,1.94-2.37,5.37,5.37,0,0,1,2.52-.65,4.89,4.89,0,0,1,2.09.51,5.11,5.11,0,0,1,1.8,1.36,3.07,3.07,0,0,1,.72,2,5.84,5.84,0,0,1-.43,1.87L152.22,155.1H180.3V127.3a2.77,2.77,0,0,1,1.51-2.66,6.87,6.87,0,0,1,3.24-.79,6.72,6.72,0,0,1,3.31.79,2.8,2.8,0,0,1,1.44,2.66v27.8h7.92a3.18,3.18,0,0,1,2.81,1.36,5.42,5.42,0,0,1,.94,3.1,5.17,5.17,0,0,1-1.08,3.17,3.23,3.23,0,0,1-2.67,1.44H189.8v21a3.12,3.12,0,0,1-1.44,2.81A6,6,0,0,1,185.05,188.94Z"/><circle class="cls-1" cx="134" cy="134" r="131.5"/></g></g></svg>