<svg id="Capa_1" data-name="Capa 1" xmlns="http://www.w3.org/2000/svg" viewBox="0 0 572.64 574.29"><path d="M969.32,393.51c-9.05,19-24.5,33.1-37.49,49-21.79,26.75-44.36,52.86-66.27,79.52-20.33,24.72-46.65,36.55-78.19,36.76-48.32.33-96.64.5-145-.14-16.65-.22-26.9,9.11-37,19.77-.76.81-.73,2.76-.48,4.07,2.52,13.13-.95,24.21-10.58,33.59-17,16.52-33.75,33.25-50.67,49.84a77.63,77.63,0,0,1-6.47,5.18h-6.71c-3.34-2.92-6.87-5.65-10-8.79q-59-59.31-117.91-118.74c-7.83-7.9-7.87-13.16-.16-20.91,16.32-16.4,32.72-32.71,49-49.19,7.9-8,17.1-12.27,28.5-11.78a6.78,6.78,0,0,0,5.17-2.72c37.18-65.24,118.45-81.26,176.86-58.81a26.46,26.46,0,0,0,9.23,1.57c38.25.1,76.49.24,114.73,0,15.59-.1,29,4.13,41.33,18.44.95-2.13,1.32-4.26,2.55-5.54,20.73-21.48,41.59-42.83,62.36-64.26,25-25.77,62.69-18.4,76.24,14.94a7,7,0,0,0,1,1.32ZM590.48,561.27c1.69-1.56,3.28-2.82,4.63-4.3,13.75-15,30.69-20.93,51-20.65,46.44.64,92.89.26,139.33.18,25.68,0,47.19-9,63.49-29.54,9.74-12.26,20-24.07,30.1-36.09q31.77-38,63.51-76c8.36-10.07,7.54-23.41-1.59-31.69-9-8.14-22.48-7.74-31.27,1.25q-36,36.81-71.73,73.86a7.8,7.8,0,0,0-2.18,4.74c-.72,31-18.62,48.58-49.62,48.59q-40.84,0-81.69,0a39.28,39.28,0,0,1-6.69-.37,10.91,10.91,0,0,1-9.46-11.33c.2-5.68,4.27-9.93,10.27-10.59a57.27,57.27,0,0,1,6.15-.19q41.13,0,82.25,0a53.12,53.12,0,0,0,7.25-.38,22.24,22.24,0,0,0,3.22-43.37,42.62,42.62,0,0,0-11.07-1.11c-39.55-.07-79.09,0-118.63-.12a29.6,29.6,0,0,1-10.89-1.8c-24.81-10.17-50.34-11.62-76.3-6.25-32.69,6.78-58.05,24.26-75.41,53.06-2,3.38-1.73,5.31,1.11,8,7.86,7.43,15.38,15.22,23,22.87C549.61,520.33,569.89,540.66,590.48,561.27Zm-54.05,82.88c14.23-14.86,29.27-30.39,44.08-46.13,4.68-5,3.82-11.24-1.78-16.85Q532.65,535,486.5,489c-6.53-6.53-12.21-6.48-18.82.09-9.92,9.87-19.72,19.86-29.67,29.71-4.72,4.67-9.66,9.12-15.09,14.22Z" transform="translate(-396.68 -96.86)"/><path d="M730.6,343.42a123.13,123.13,0,0,1-123-123.78c.24-67.89,55.59-122.9,123.53-122.78,68.11.12,123.24,55.66,123,123.88A123.13,123.13,0,0,1,730.6,343.42Zm.26-22.41A100.87,100.87,0,1,0,630,219.9,100.74,100.74,0,0,0,730.86,321Z" transform="translate(-396.68 -96.86)"/><path d="M663.78,478.64a11.15,11.15,0,0,1-11,11,11.49,11.49,0,0,1-11.3-11.42,11.24,11.24,0,0,1,11.7-10.89A10.94,10.94,0,0,1,663.78,478.64Z" transform="translate(-396.68 -96.86)"/><path d="M717.44,165.58c0-3.94-.1-8,0-12.13.2-6.76,4.85-11.64,11-11.73s11.73,4.78,11.16,11.4c-.75,8.63.81,15,10,17.94,2.48.81,4.56,3.2,6.53,5.16,4.66,4.62,4.86,11,.72,15.57-3.92,4.37-10.11,4.92-15.17,1.33a76,76,0,0,0-6.81-4.85c-4.67-2.59-9.35-2.47-13.5,1.16-3.54,3.1-4.85,7.09-3.34,11.62,1.73,5.18,5.55,7.52,11,7.92,17.27,1.27,29.18,11.29,32.58,27.14,3.17,14.84-4,28.91-18.75,37.07a6.81,6.81,0,0,0-2.86,4.49c-.45,3.29,0,6.7-.2,10.05-.39,6.49-5,10.83-11.22,10.8S717,294,717.67,287.59c1-9.3-1.7-15.1-10.64-18.81-4-1.67-7.24-5.81-10.19-9.36A10.64,10.64,0,0,1,698,244.33c4.44-4,10.45-4,15.2.21,2.52,2.21,4.77,4.8,7.52,6.65,4.67,3.14,9.77,3.89,14.58.26,3.94-3,5.47-7.12,4-11.91-1.78-5.76-6.19-7.89-11.95-8.28-24.92-1.69-39.75-26.76-28.8-48.53C702.11,175.64,706,172.08,717.44,165.58Z" transform="translate(-396.68 -96.86)"/></svg>